<?xml version="1.0" encoding="utf-8"?>
<!-- Generator: Adobe Illustrator 22.0.1, SVG Export Plug-In . SVG Version: 6.00 Build 0)  -->

<svg width="200" height="214.4" viewBox="0 0 200 214.4402225496407" class="css-1j8o68f">
    <defs id="SvgjsDefs1422"></defs>
    <g id="SvgjsG1423"
        transform="matrix(1,0,0,1,33.6,0.2)"
        fill="#111111">
        <g xmlns="http://www.w3.org/2000/svg" display="none">
            <g display="inline">
                <rect x="1.7" y="1" fill="#111111" stroke="#111111" stroke-miterlimit="10" width="129"
                    height="129"></rect>
                <g>
                    <path fill="#111111" stroke="#111111" stroke-miterlimit="10"
                        d="M 110.7 31.1 v -0.4 c 0 -5.4 -4.4 -9.8 -9.8 -9.8 h -0.4 c -1 -5.7 -5.9 -10 -11.8 -10 h -45 c -5.9 0 -10.9 4.3 -11.8 10 h -0.4 c -5.4 0 -9.8 4.4 -9.8 9.8 v 0.4 c -5.7 1 -10 5.9 -10 11.8 v 45 c 0 5.9 4.3 10.9 10 11.8 v 0.4 c 0 5.4 4.4 9.8 9.8 9.8 h 0.4 c 1 5.7 5.9 10 11.8 10 h 45 c 5.9 0 10.9 -4.3 11.8 -10 h 0.4 c 5.4 0 9.8 -4.4 9.8 -9.8 v -0.4 c 5.7 -1 10 -5.9 10 -11.8 v -45 C 120.7 37 116.4 32.1 110.7 31.1 z">
                    </path>
                </g>
            </g>
        </g>
        <g xmlns="http://www.w3.org/2000/svg">
            <path display="none" fill="#111111"
                d="M 104.5 100.2 H 24 l 0 -9 c 0.4 -1.7 0.9 -3.3 1.6 -4.7 c 0.6 -1.3 1.4 -2.5 2.5 -3.8 c 1.1 -1.3 2.6 -2.4 4.4 -3 c 0.7 -0.3 7.5 -3.9 12.6 -6.5 c 3.9 -2 6.6 -3.5 8 -4.2 v -2.5 l -0.3 -1.2 c -0.2 -0.6 -0.3 -1.2 -0.5 -1.8 c -0.2 -0.7 -0.5 -1.4 -0.7 -2.2 c -1.1 -2.1 -2 -4.5 -2.7 -7.1 c -0.1 -0.4 -0.2 -0.8 -0.2 -1.1 l -0.3 -1.3 l 0.9 -0.5 c 1.3 -0.8 2.1 -2.3 2.1 -3.8 v -3.7 c 0 -1.2 -0.4 -2.2 -1.2 -3.1 l -0.5 -0.5 l 0.1 -0.7 c 0.5 -4 1.9 -7.3 4.1 -9.7 c 3.2 -3.3 7.4 -4.2 9.6 -4.5 l 1.3 -0.1 l 2.1 0.2 c 2 0.3 5.9 1.3 8.8 4.4 c 2.2 2.4 3.6 5.6 4.1 9.7 l 0.1 0.7 l -0.5 0.5 c -0.8 0.8 -1.2 1.9 -1.2 3.1 v 3.7 c 0 1.1 0.4 2.1 1.1 2.9 l 0.5 0.6 l -0.3 0.8 c -0.5 1.6 -1.4 2.9 -2.6 4 c -1.9 1.6 -4.6 2.5 -8.1 2.5 l -0.6 0 l -0.4 -0.5 c -0.8 -0.8 -1.9 -1.3 -3 -1.3 c -2.3 0 -4.2 1.9 -4.2 4.2 s 1.9 4.2 4.2 4.2 c 0.9 0 1.8 -0.3 2.6 -0.9 l 0.4 -0.3 l 0.8 0 c 2.3 0 4.5 -0.3 6.4 -0.9 l 2.7 -0.8 l -1.1 3.7 c -0.2 0.8 -0.2 1 -0.2 1 v 2.9 c 1.5 0.8 4.6 2.4 8.9 4.7 c 4.5 2.4 10.1 5.4 10.7 5.6 c 1.8 0.6 3.3 1.7 4.4 3 c 1.1 1.3 1.9 2.5 2.5 3.9 c 0.7 1.5 1.2 3.1 1.6 4.7 l 0 0.3 V 100.2 z M 46.5 75.8 c -10.1 5.3 -12.5 6.6 -13 6.7 c -1.3 0.5 -2.3 1.2 -3.1 2.1 c -0.9 1.1 -1.6 2.1 -2.1 3.2 c -0.6 1.2 -1.1 2.5 -1.4 3.9 v 5.5 h 74.6 v -5.5 c -0.3 -1.4 -0.7 -2.7 -1.3 -3.9 c -0.5 -1.1 -1.2 -2.1 -2.1 -3.2 c -0.8 -0.9 -1.9 -1.6 -3.2 -2.1 c -0.4 -0.1 -2.4 -1.2 -11 -5.8 c -4.3 -2.3 -9.1 -4.8 -9.6 -5.1 l -0.9 -0.4 l 0 -4.8 c 0 -0.1 0 -0.2 0 -0.4 c -1.5 0.3 -3.1 0.4 -4.7 0.4 c -1.2 0.8 -2.6 1.2 -4 1.2 c -4 0 -7.2 -3.2 -7.2 -7.2 s 3.2 -7.2 7.2 -7.2 c 1.7 0 3.3 0.6 4.6 1.7 c 2.5 -0.1 4.3 -0.7 5.5 -1.8 c 0.6 -0.5 1.1 -1.2 1.4 -1.9 c -0.8 -1.2 -1.2 -2.6 -1.2 -4.1 v -3.7 c 0 -1.7 0.6 -3.3 1.6 -4.6 c -0.5 -3.1 -1.6 -5.6 -3.2 -7.3 c -2.3 -2.4 -5.4 -3.2 -7 -3.5 l -1.7 -0.1 l -1 0.1 c -1.4 0.1 -5 0.8 -7.6 3.5 c -1.7 1.8 -2.7 4.2 -3.2 7.3 c 1 1.3 1.6 2.9 1.6 4.6 v 3.7 c 0 2.3 -1 4.3 -2.7 5.7 c 0 0.1 0 0.2 0.1 0.3 c 0.6 2.4 1.4 4.6 2.5 6.5 l 0.1 0.2 c 0.3 0.9 0.6 1.7 0.8 2.5 c 0.2 0.7 0.4 1.3 0.5 1.9 l 0.4 1.8 v 4.6 M 83.9 40.7 c -0.4 -5.8 -2.2 -10.5 -5.4 -13.9 c -5.6 -5.9 -13.3 -5.8 -13.8 -5.8 c -0.6 0 -8.3 -0.1 -13.8 5.8 c -3.2 3.4 -5 8.1 -5.4 13.9 c -1.1 0.5 -1.8 1.6 -1.8 2.9 v 3.7 c 0 1.8 1.4 3.2 3.2 3.2 s 3.2 -1.4 3.2 -3.2 v -3.7 c 0 -1.3 -0.7 -2.3 -1.8 -2.8 c 0.3 -5.1 1.9 -9.1 4.6 -12 c 4.8 -5.1 11.7 -5 11.8 -5 l 0 -1.4 l 0 1.4 c 0.1 0 7 -0.1 11.8 5 c 2.7 2.9 4.3 6.9 4.6 12 c -1 0.5 -1.8 1.6 -1.8 2.8 v 3.7 c 0 1.2 0.7 2.3 1.8 2.8 c -0.2 1.5 -1 4.3 -3.4 6.5 c -2.4 2.1 -5.9 3 -10.4 2.8 c -0.5 -1 -1.4 -1.7 -2.6 -1.7 c -1.6 0 -2.9 1.3 -2.9 2.9 s 1.3 2.9 2.9 2.9 c 1 0 1.8 -0.5 2.4 -1.2 c 0.5 0 1 0.1 1.5 0.1 c 4.6 0 8.3 -1.2 11 -3.6 c 3.3 -2.9 4.2 -6.8 4.4 -8.5 c 1.1 -0.5 1.8 -1.6 1.8 -2.9 v -3.7 C 85.7 42.3 85 41.2 83.9 40.7 z">
            </path>
            <path display="none" fill="#111111"
                d="M 91 51.8 H 40.9 v -3 h 50 V 51.8 z M 82.2 35.8 H 49.7 v 3 h 32.5 V 35.8 z M 91 56.8 H 40.9 v 3 h 50 V 56.8 z M 91 64.8 H 40.9 v 3 h 50 V 64.8 z M 91 72.8 H 40.9 v 3 h 50 V 72.8 z M 91 80.8 H 40.9 v 3 h 50 V 80.8 z M 95.5 21.1 h -58.6 c -2.8 0 -5 2.2 -5 5 v 78.8 c 0 2.8 2.2 5 5 5 H 81.8 c -2.1 -0.5 -3.9 -1.5 -5.4 -3 H 36.9 c -1.1 0 -2 -0.9 -2 -2 v -78.8 c 0 -1.1 0.9 -2 2 -2 h 58.6 c 1.1 0 2 0.9 2 2 v 78.8 c 0 1.1 -0.9 2 -2 2 h -3.3 c -1.4 1.5 -3.3 2.5 -5.4 3 h 8.7 c 2.8 0 5 -2.2 5 -5 v -78.8 C 100.5 23.3 98.3 21.1 95.5 21.1 z M 80.3 88.8 H 40.9 v 3 h 35.1 C 77.2 90.5 78.6 89.4 80.3 88.8 z M 91 88.8 h -2.6 c 0.9 0.4 1.8 0.9 2.6 1.5 V 88.8 z M 92.4 99.1 c 0 3.7 -2.5 6.8 -5.9 7.8 c -0.7 0.2 -1.4 0.3 -2.1 0.3 s -1.5 -0.1 -2.1 -0.3 c -3.4 -0.9 -5.9 -4.1 -5.9 -7.8 c 0 -3.2 1.9 -6 4.6 -7.3 C 81.9 91.3 83.1 91 84.3 91 s 2.4 0.3 3.4 0.8 C 90.5 93.1 92.4 95.8 92.4 99.1 z M 89.2 95.9 c -0.3 -0.3 -0.8 -0.5 -1.2 -0.5 c -0.4 0 -0.9 0.2 -1.2 0.5 l -3.5 3.5 L 81.9 98 c -0.3 -0.3 -0.8 -0.5 -1.2 -0.5 S 79.8 97.7 79.5 98 c -0.7 0.7 -0.7 1.8 0 2.4 l 2.6 2.6 c 0.3 0.3 0.8 0.5 1.2 0.5 s 0.9 -0.2 1.2 -0.5 l 4.7 -4.7 C 89.8 97.7 89.8 96.6 89.2 95.9 z">
            </path>
            <path display="none" fill="#111111"
                d="M 47.5 64.8 c 0 -1.4 -1.1 -2.6 -2.6 -2.6 h -4.1 c -1.4 0 -2.6 1.1 -2.6 2.6 v 4.7 c 0 1.4 1.1 2.6 2.6 2.6 h 4.1 c 1.4 0 2.6 -1.1 2.6 -2.6 V 64.8 z M 59.5 64.8 c 0 -1.4 -1.1 -2.6 -2.6 -2.6 h -4.1 c -1.4 0 -2.6 1.1 -2.6 2.6 v 4.7 c 0 1.4 1.1 2.6 2.6 2.6 h 4.1 c 1.4 0 2.6 -1.1 2.6 -2.6 V 64.8 z M 71.5 64.8 c 0 -1.4 -1.1 -2.6 -2.6 -2.6 h -4.1 c -1.4 0 -2.6 1.1 -2.6 2.6 v 4.7 c 0 1.4 1.1 2.6 2.6 2.6 h 4.1 c 1.4 0 2.6 -1.1 2.6 -2.6 V 64.8 z M 44.9 78.6 c 0.3 0 0.6 0.3 0.6 0.6 v 4.7 c 0 0.3 -0.3 0.6 -0.6 0.6 h -4.1 c -0.3 0 -0.6 -0.3 -0.6 -0.6 v -4.7 c 0 -0.3 0.3 -0.6 0.6 -0.6 H 44.9 M 44.9 76.6 h -4.1 c -1.4 0 -2.6 1.1 -2.6 2.6 v 4.7 c 0 1.4 1.1 2.6 2.6 2.6 h 4.1 c 1.4 0 2.6 -1.1 2.6 -2.6 v -4.7 C 47.5 77.7 46.3 76.6 44.9 76.6 L 44.9 76.6 z M 56.9 78.6 c 0.3 0 0.6 0.3 0.6 0.6 v 4.7 c 0 0.3 -0.3 0.6 -0.6 0.6 h -4.1 c -0.3 0 -0.6 -0.3 -0.6 -0.6 v -4.7 c 0 -0.3 0.3 -0.6 0.6 -0.6 H 56.9 M 56.9 76.6 h -4.1 c -1.4 0 -2.6 1.1 -2.6 2.6 v 4.7 c 0 1.4 1.1 2.6 2.6 2.6 h 4.1 c 1.4 0 2.6 -1.1 2.6 -2.6 v -4.7 C 59.5 77.7 58.3 76.6 56.9 76.6 L 56.9 76.6 z M 68.9 78.6 c 0.3 0 0.6 0.3 0.6 0.6 v 4.7 c 0 0.3 -0.3 0.6 -0.6 0.6 h -4.1 c -0.3 0 -0.6 -0.3 -0.6 -0.6 v -4.7 c 0 -0.3 0.3 -0.6 0.6 -0.6 H 68.9 M 68.9 76.6 h -4.1 c -1.4 0 -2.6 1.1 -2.6 2.6 v 4.7 c 0 1.4 1.1 2.6 2.6 2.6 h 4.1 c 1.4 0 2.6 -1.1 2.6 -2.6 v -4.7 C 71.5 77.7 70.3 76.6 68.9 76.6 L 68.9 76.6 z M 80.9 78.6 c 0.3 0 0.6 0.3 0.6 0.6 v 4.7 c 0 0.3 -0.3 0.6 -0.6 0.6 h -4.1 c -0.3 0 -0.6 -0.3 -0.6 -0.6 v -4.7 c 0 -0.3 0.3 -0.6 0.6 -0.6 H 80.9 M 80.9 76.6 h -4.1 c -1.4 0 -2.6 1.1 -2.6 2.6 v 4.7 c 0 1.4 1.1 2.6 2.6 2.6 h 4.1 c 1.4 0 2.6 -1.1 2.6 -2.6 v -4.7 C 83.5 77.7 82.3 76.6 80.9 76.6 L 80.9 76.6 z M 79.1 71.2 l 5.3 -5.3 c 0.8 -0.8 0.8 -2 0 -2.7 c -0.8 -0.8 -2 -0.8 -2.7 0 l -3.9 3.9 l -1.5 -1.5 c -0.8 -0.8 -2 -0.8 -2.7 0 s -0.8 2 0 2.7 l 2.9 2.9 c 0.4 0.4 0.9 0.6 1.4 0.6 S 78.7 71.6 79.1 71.2 z M 76.9 64.9 l 0.8 0.8 l 3.2 -3.2 c 0.1 -0.1 0.2 -0.2 0.4 -0.3 c -0.1 0 -0.2 0 -0.3 0 h -4.1 c -1.2 0 -2.1 0.8 -2.5 1.9 c 0.1 0 0.3 0 0.4 0 C 75.6 64 76.3 64.4 76.9 64.9 z M 79.6 72 h 1.3 c 1.4 0 2.6 -1.1 2.6 -2.6 v -1.3 l -3.7 3.7 C 79.7 72 79.7 72 79.6 72 z M 101.5 49.2 c -0.2 -0.4 -0.7 -0.7 -1.1 -0.8 v -5.8 v -3 v -1 v -2.3 c 0 -0.3 0 -0.6 -0.1 -0.9 c -0.4 -2.5 -2.5 -4.4 -5.1 -4.4 h -4.3 c -1.4 -3.8 -5 -6.5 -9.3 -6.5 c -4.2 0 -7.9 2.7 -9.3 6.5 H 54.2 c -1.4 -3.8 -5 -6.5 -9.3 -6.5 c -5.4 0 -9.9 4.4 -9.9 9.9 c 0 0.3 0 0.6 0 0.9 l -0.1 0 c 0 0 -0.1 0 -0.1 0 l -0.1 0.1 h 0 c -1.8 0.8 -3 2.6 -3 4.7 v 12.9 c -0.8 0 -1.5 0.7 -1.5 1.5 c 0 0.8 0.7 1.5 1.5 1.5 v 38.4 c 0 2.9 2.3 5.2 5.2 5.2 h 42.2 h 1 h 3 l 4.2 -4.4 h 4.5 c 2.1 -0.4 3.8 -2.1 4.2 -4.3 c 2.4 -0.5 4.3 -2.6 4.3 -5.1 V 51.7 l 0.7 -0.4 C 101.7 50.9 101.9 50 101.5 49.2 z M 97.2 35.4 c 0.1 0.3 0.2 0.6 0.2 1 v 2 v 1.3 v 3 v 7.2 l -5.6 3.1 v -6.4 v -3 V 42.6 v -2.3 c 0 -0.3 0 -0.6 -0.1 -0.9 c -0.4 -2.5 -2.5 -4.4 -5.1 -4.4 H 74.8 c 0 -0.2 0 -0.4 0 -0.5 c 0 -0.1 0 -0.2 0 -0.4 h 20.4 C 96.1 34.1 96.8 34.7 97.2 35.4 z M 81.6 27.7 c 2.6 0 4.8 1.4 6 3.5 H 75.7 C 76.8 29.1 79.1 27.7 81.6 27.7 z M 71.8 35 H 42.3 l 2.1 -0.9 h 27.3 c 0 0.1 0 0.2 0 0.4 C 71.8 34.7 71.8 34.9 71.8 35 z M 44.9 27.7 c 2.6 0 4.8 1.4 6 3.5 h -5.3 c -0.7 0 -1.3 0.1 -1.9 0.4 h 0 l 0 0 c 0 0 -0.1 0 -0.1 0.1 l -5.4 2.5 C 38.3 30.5 41.3 27.7 44.9 27.7 z M 34.8 40.3 c 0 -0.8 0.4 -1.5 1.1 -1.9 c 1.5 3.5 5 6 9.1 6 c 0.8 0 1.5 -0.7 1.5 -1.5 c 0 -0.8 -0.7 -1.5 -1.5 -1.5 c -2.5 0 -4.7 -1.3 -5.9 -3.3 h 33.4 c 1.4 3.7 5 6.3 9.2 6.3 c 0.8 0 1.5 -0.7 1.5 -1.5 c 0 -0.8 -0.7 -1.5 -1.5 -1.5 c -2.5 0 -4.7 -1.3 -5.9 -3.3 h 10.8 c 0.9 0 1.6 0.5 2 1.3 c 0.1 0.3 0.2 0.6 0.2 1 v 2 v 1.3 v 3 v 6.6 H 34.8 V 40.3 z M 37 96.8 c -1.2 0 -2.2 -1 -2.2 -2.2 v -38.4 h 54.1 v 31.5 h -3.7 c -2.8 0 -5 2.2 -5 5 v 4.1 H 37 z M 83.1 95.7 v -3 c 0 -1.1 0.9 -2 2 -2 h 2.8 L 83.1 95.7 z M 93.1 90.3 c 0 0.3 -0.1 0.7 -0.2 1 c -0.2 0.4 -0.5 0.8 -1 1 h -1.4 l 1.5 -1.6 v -2.4 v -0.6 v -1 V 56.1 h 0.4 l 0.8 -0.4 v 32.6 V 90.3 z M 97.2 86.1 c 0 0.8 -0.5 1.6 -1.2 1.9 V 54 l 1.2 -0.7 V 86.1 z">
            </path>
            <path display="none" fill="#111111"
                d="M 101.7 51.7 c -0.2 -0.4 -0.7 -0.7 -1.1 -0.8 v -5.8 v -3 v -1 v -2.3 c 0 -0.3 0 -0.6 -0.1 -0.9 c -0.4 -2.5 -2.5 -4.4 -5.1 -4.4 H 91.1 c -1.4 -3.8 -5 -6.5 -9.3 -6.5 c -4.3 0 -7.9 2.7 -9.3 6.5 H 54.3 c -1.4 -3.8 -5 -6.5 -9.3 -6.5 c -5.4 0 -9.9 4.4 -9.9 9.9 c 0 0.3 0 0.6 0 0.9 l -0.1 0 c 0 0 -0.1 0 -0.1 0 l -0.1 0.1 h 0 c -1.8 0.8 -3 2.6 -3 4.7 V 55.6 c -0.8 0 -1.5 0.7 -1.5 1.5 s 0.7 1.5 1.5 1.5 v 38.4 c 0 2.9 2.3 5.2 5.2 5.2 h 42.2 h 1 h 3 l 4.2 -4.4 h 4.5 c 2.1 -0.4 3.8 -2.1 4.2 -4.3 c 2.4 -0.4 4.3 -2.6 4.3 -5.1 V 54.2 l 0.7 -0.4 C 101.9 53.4 102.1 52.4 101.7 51.7 z M 97.4 37.9 c 0.1 0.3 0.2 0.6 0.2 1 v 2 v 1.3 v 3 v 7.2 l -5.6 3.1 v -6.4 v -3 v -1 v -2.3 c 0 -0.3 0 -0.6 -0.1 -0.9 c -0.4 -2.5 -2.5 -4.4 -5.1 -4.4 H 75 c 0 -0.2 0 -0.4 0 -0.5 c 0 -0.1 0 -0.2 0 -0.4 h 20.4 C 96.3 36.6 97 37.1 97.4 37.9 z M 81.8 30.1 c 2.6 0 4.8 1.4 6 3.5 H 75.8 C 77 31.6 79.2 30.1 81.8 30.1 z M 72 37.5 H 42.5 l 2.1 -0.9 h 27.3 c 0 0.1 0 0.2 0 0.4 C 71.9 37.2 72 37.4 72 37.5 z M 45.1 30.1 c 2.6 0 4.8 1.4 6 3.5 h -5.3 c -0.7 0 -1.3 0.1 -1.9 0.4 h 0 l -0.1 0 c 0 0 -0.1 0 -0.1 0.1 l -5.4 2.5 C 38.5 33 41.5 30.1 45.1 30.1 z M 35 42.8 c 0 -0.8 0.4 -1.5 1.1 -1.9 c 1.5 3.5 5 6 9.1 6 c 0.8 0 1.5 -0.7 1.5 -1.5 s -0.7 -1.5 -1.5 -1.5 c -2.5 0 -4.7 -1.3 -5.9 -3.3 H 72.6 c 1.4 3.7 5 6.3 9.2 6.3 c 0.8 0 1.5 -0.7 1.5 -1.5 s -0.7 -1.5 -1.5 -1.5 c -2.5 0 -4.7 -1.3 -5.9 -3.3 h 10.8 c 0.9 0 1.6 0.5 2 1.3 c 0.1 0.3 0.2 0.6 0.2 1 v 2 v 1.3 v 3 v 6.6 H 35 V 42.8 z M 37.2 99.3 c -1.2 0 -2.2 -1 -2.2 -2.2 V 58.6 h 54.1 v 31.5 h -3.7 c -2.8 0 -5 2.2 -5 5 v 4.1 H 37.2 z M 83.3 98.2 v -3 c 0 -1.1 0.9 -2 2 -2 h 2.9 L 83.3 98.2 z M 93.2 92.8 c 0 0.3 -0.1 0.7 -0.2 1 c -0.2 0.4 -0.6 0.8 -1 1 h -1.4 l 1.5 -1.6 v -2.4 v -0.6 v -1 V 58.6 h 0.4 l 0.8 -0.4 v 32.6 V 92.8 z M 97.4 88.5 c 0 0.8 -0.5 1.6 -1.2 1.9 V 56.5 l 1.2 -0.7 V 88.5 z M 71 72.8 V 67.5 c 0 -1.6 1.3 -2.9 2.9 -2.9 h 4.6 c 1.6 0 2.9 1.3 2.9 2.9 v 5.3 c 0 1.6 -1.3 2.9 -2.9 2.9 h -4.6 C 72.3 75.7 71 74.4 71 72.8 z M 81.3 88.9 v -5.3 c 0 -1.6 -1.3 -2.9 -2.9 -2.9 h -4.6 c -1.6 0 -2.9 1.3 -2.9 2.9 v 5.3 c 0 1.6 1.3 2.9 2.9 2.9 h 4.6 C 80 91.8 81.3 90.5 81.3 88.9 z M 79.1 88.9 c 0 0.3 -0.3 0.6 -0.6 0.6 h -4.6 c -0.3 0 -0.6 -0.3 -0.6 -0.6 v -5.3 c 0 -0.3 0.3 -0.6 0.6 -0.6 h 4.6 c 0.3 0 0.6 0.3 0.6 0.6 V 88.9 z M 55.5 72.8 V 67.5 c 0 -1.6 1.3 -2.9 2.9 -2.9 h 4.6 c 1.6 0 2.9 1.3 2.9 2.9 v 5.3 c 0 1.6 -1.3 2.9 -2.9 2.9 h -4.6 C 56.8 75.7 55.5 74.4 55.5 72.8 z M 66.8 81.9 c 0.8 0.8 0.8 2.2 0 3.1 l -5.9 5.9 c -0.4 0.4 -1 0.6 -1.5 0.6 s -1.1 -0.2 -1.5 -0.6 l -3.3 -3.3 c -0.8 -0.8 -0.8 -2.2 0 -3.1 c 0.8 -0.8 2.2 -0.8 3.1 0 l 1.7 1.7 l 4.4 -4.4 C 64.5 81 65.9 81 66.8 81.9 z M 50.3 67.5 v 5.3 c 0 1.6 -1.3 2.9 -2.9 2.9 h -4.6 c -1.6 0 -2.9 -1.3 -2.9 -2.9 V 67.5 c 0 -1.6 1.3 -2.9 2.9 -2.9 h 4.6 C 49 64.6 50.3 65.9 50.3 67.5 z M 61.6 91.7 l 4.2 -4.2 v 1.4 c 0 1.6 -1.3 2.9 -2.9 2.9 h -1.4 C 61.6 91.7 61.6 91.7 61.6 91.7 z M 50.3 83.6 v 5.3 c 0 1.6 -1.3 2.9 -2.9 2.9 h -4.6 c -1.6 0 -2.9 -1.3 -2.9 -2.9 v -5.3 c 0 -1.6 1.3 -2.9 2.9 -2.9 h 4.6 C 49 80.7 50.3 82 50.3 83.6 z M 63 80.7 c 0.1 0 0.2 0 0.3 0 c -0.1 0.1 -0.3 0.2 -0.4 0.3 l -3.6 3.6 l -0.9 -0.9 c -0.6 -0.6 -1.4 -1 -2.3 -1 c -0.2 0 -0.3 0 -0.5 0 c 0.3 -1.2 1.4 -2.1 2.8 -2.1 H 63 z">
            </path>
            <path display="none" fill="#111111"
                d="M 77.1 71.7 v -5.6 c 0 -1.7 1.4 -3 3 -3 h 4.9 c 1.7 0 3 1.4 3 3 v 5.6 c 0 1.7 -1.4 3 -3 3 h -4.9 C 78.5 74.7 77.1 73.4 77.1 71.7 z M 67.1 91.7 h 1.5 c 1.7 0 3 -1.4 3 -3 v -1.5 l -4.4 4.4 C 67.2 91.7 67.2 91.7 67.1 91.7 z M 77.1 88.7 V 83.1 c 0 -1.7 1.4 -3 3 -3 h 4.9 c 1.7 0 3 1.4 3 3 v 5.6 c 0 1.7 -1.4 3 -3 3 h -4.9 C 78.5 91.7 77.1 90.4 77.1 88.7 z M 79.5 88.7 c 0 0.4 0.3 0.7 0.7 0.7 h 4.9 c 0.4 0 0.7 -0.3 0.7 -0.7 V 83.1 c 0 -0.4 -0.3 -0.7 -0.7 -0.7 h -4.9 c -0.4 0 -0.7 0.3 -0.7 0.7 V 88.7 z M 47.4 91.7 h 4.9 c 1.7 0 3 -1.4 3 -3 V 83.1 c 0 -1.7 -1.4 -3 -3 -3 h -4.9 c -1.7 0 -3 1.4 -3 3 v 5.6 C 44.4 90.4 45.8 91.7 47.4 91.7 z M 63.2 90.8 c 0.4 0.4 1 0.7 1.6 0.7 s 1.2 -0.2 1.6 -0.7 l 6.2 -6.2 c 0.9 -0.9 0.9 -2.3 0 -3.2 c -0.9 -0.9 -2.3 -0.9 -3.2 0 l -4.6 4.6 L 63 84.1 c -0.9 -0.9 -2.3 -0.9 -3.2 0 c -0.9 0.9 -0.9 2.3 0 3.2 L 63.2 90.8 z M 63.8 74.7 h 4.9 c 1.7 0 3 -1.4 3 -3 v -5.6 c 0 -1.7 -1.4 -3 -3 -3 h -4.9 c -1.7 0 -3 1.4 -3 3 v 5.6 C 60.7 73.4 62.1 74.7 63.8 74.7 z M 47.4 74.7 h 4.9 c 1.7 0 3 -1.4 3 -3 v -5.6 c 0 -1.7 -1.4 -3 -3 -3 h -4.9 c -1.7 0 -3 1.4 -3 3 v 5.6 C 44.4 73.4 45.8 74.7 47.4 74.7 z M 63.8 80.1 c -1.4 0 -2.6 0.9 -2.9 2.2 c 0.2 0 0.3 -0.1 0.5 -0.1 c 0.9 0 1.8 0.4 2.5 1 l 1 1 l 3.8 -3.8 c 0.1 -0.1 0.3 -0.2 0.4 -0.4 c -0.1 0 -0.2 0 -0.4 0 H 63.8 z M 102.1 53.6 c 0 0.9 -0.8 1.7 -1.7 1.7 v 34.7 v 1.1 v 0.7 v 2.7 l -9.9 10.3 h -3.4 h -1.1 H 38.1 c -3.3 0 -5.9 -2.6 -5.9 -5.9 V 55.3 c -0.9 0 -1.7 -0.8 -1.7 -1.7 c 0 -0.9 0.8 -1.7 1.7 -1.7 V 37.3 c 0 -3.3 2.6 -5.9 5.9 -5.9 h 4.6 v -4.1 c 0 -0.9 0.8 -1.7 1.7 -1.7 s 1.7 0.8 1.7 1.7 v 4.1 h 39.6 v -4.1 c 0 -0.9 0.8 -1.7 1.7 -1.7 s 1.7 0.8 1.7 1.7 v 4.1 h 5.3 c 2.9 0 5.4 2.1 5.8 4.9 c 0.1 0.3 0.1 0.6 0.1 1 V 39.9 v 1.1 v 3.4 v 7.5 h 0.1 C 101.3 51.9 102.1 52.6 102.1 53.6 z M 35.5 51.9 h 61.3 v -7.5 v -3.4 v -1.4 v -2.3 c 0 -0.4 -0.1 -0.8 -0.3 -1.1 c -0.4 -0.8 -1.3 -1.4 -2.3 -1.4 h -5.3 v 7.4 c 0 0.9 -0.8 1.7 -1.7 1.7 s -1.7 -0.8 -1.7 -1.7 v -7.4 H 46.1 v 7.4 c 0 0.9 -0.8 1.7 -1.7 1.7 s -1.7 -0.8 -1.7 -1.7 v -7.4 h -4.6 c -1.4 0 -2.5 1.1 -2.5 2.5 V 51.9 z M 96 94.5 h -3.2 c -1.3 0 -2.3 1 -2.3 2.3 v 3.4 L 96 94.5 z M 97 55.3 H 35.5 v 43.7 c 0 1.4 1.1 2.5 2.5 2.5 h 49 v -4.7 c 0 -3.1 2.5 -5.7 5.7 -5.7 h 4.2 V 55.3 z">
            </path>
            <path display="none" fill="#111111"
                d="M 54.3 76.8 c 1.6 -0.7 2.7 -1.2 3 -1.4 v -3.5 l -0.2 -0.9 c -0.1 -0.5 -0.3 -1 -0.4 -1.5 c -0.2 -0.5 -0.4 -1.1 -0.6 -1.8 c -0.9 -1.7 -1.6 -3.6 -2.1 -5.6 c -0.1 -0.3 -0.1 -0.6 -0.2 -0.9 l 0 -0.1 c 1.8 -0.6 3.2 -2.3 3.2 -4.3 v -2.9 c 0 -1.2 -0.5 -2.3 -1.3 -3.2 c 0.4 -3 1.4 -5.5 3 -7.2 c 2.3 -2.4 5.4 -3.1 7 -3.2 l 0.9 0 l 1.6 0.1 c 1.6 0.3 4.3 1 6.3 3.2 c 1.6 1.7 2.6 4.2 3 7.2 c -0.8 0.8 -1.3 2 -1.3 3.2 v 2.9 c 0 1.1 0.4 2.2 1.2 3 c -0.3 0.9 -0.8 2 -1.8 2.9 c -1.3 1.2 -3.3 1.7 -5.9 1.8 c -0.8 -0.8 -1.9 -1.3 -3.1 -1.3 c -2.3 0 -4.2 1.9 -4.2 4.2 s 1.9 4.2 4.2 4.2 c 1 0 1.9 -0.3 2.7 -0.9 c 0.1 0 0.2 0 0.4 0 c 2.6 0 4.9 -0.5 6.9 -1.3 l -0.6 1.9 c -0.2 0.6 -0.2 0.8 -0.2 0.8 v 3.8 c 0.2 0.1 1 0.5 2.2 1 c -0.8 5.8 -5.8 10.3 -11.8 10.3 C 60 87.1 55.1 82.6 54.3 76.8 z M 52.3 59.3 c 1.4 0 2.5 -1.1 2.5 -2.5 v -2.9 c 0 -1 -0.6 -1.8 -1.4 -2.2 c 0.3 -4 1.5 -7.2 3.6 -9.5 c 3.8 -4 9.3 -3.9 9.3 -3.9 l 0 -1.1 l 0 1.1 c 0 0 5.5 -0.1 9.3 3.9 c 2.2 2.3 3.4 5.5 3.6 9.5 c -0.8 0.4 -1.4 1.3 -1.4 2.2 v 2.9 c 0 1 0.6 1.8 1.4 2.2 c -0.2 1.2 -0.8 3.4 -2.7 5.1 c -1.9 1.7 -4.7 2.4 -8.2 2.2 c -0.4 -0.8 -1.1 -1.3 -2 -1.3 c -1.2 0 -2.3 1 -2.3 2.3 c 0 1.2 1 2.3 2.3 2.3 c 0.8 0 1.5 -0.4 1.9 -1 c 0.4 0 0.8 0 1.2 0 c 3.6 0 6.6 -0.9 8.7 -2.8 c 2.6 -2.3 3.3 -5.3 3.4 -6.7 c 0.8 -0.4 1.4 -1.3 1.4 -2.3 v -2.9 c 0 -1 -0.6 -1.9 -1.4 -2.3 c -0.3 -4.6 -1.7 -8.3 -4.3 -11 c -4.4 -4.6 -10.5 -4.6 -10.9 -4.6 c -0.5 0 -6.5 0 -10.9 4.6 c -2.6 2.7 -4 6.4 -4.3 11 c -0.8 0.4 -1.4 1.3 -1.4 2.3 v 2.9 C 49.8 58.2 50.9 59.3 52.3 59.3 z M 100.2 93.1 c -0.3 -1.3 -0.7 -2.6 -1.2 -3.7 c -0.5 -1.1 -1.1 -2 -2 -3 c -0.9 -1.1 -2.1 -1.9 -3.5 -2.4 c -0.3 -0.1 -8.6 -3.9 -13.7 -6.3 c -1.2 6.5 -6.9 11.4 -13.7 11.4 c -6.8 0 -12.5 -4.9 -13.7 -11.4 c -5.4 2.5 -13.4 6.1 -13.7 6.2 c -1.4 0.5 -2.6 1.3 -3.5 2.4 c -0.9 1 -1.5 2 -2 3 c -0.6 1.2 -1 2.4 -1.3 3.7 l 0 6.7 h 8.7 h 2.5 h 46 h 2.5 h 8.7 v -6.4 L 100.2 93.1 z">
            </path>
            <g display="none">
                <path display="inline" fill="#111111"
                    d="M 83.5 27 c 11.2 0 20.3 9.1 20.3 20.3 c 0 8.3 -5 15.7 -12.7 18.9 l -0.7 0.3 l -0.5 0.5 l -3.5 3.9 v -0.2 v -3 h -3 c -11.2 0 -20.3 -9.1 -20.3 -20.3 S 72.3 27 83.5 27 M 86.9 47 c -0.9 -0.9 -2.1 -1.4 -3.5 -1.4 c -1.4 0 -2.6 0.5 -3.5 1.4 c -0.9 -0.9 -2.1 -1.4 -3.5 -1.4 c -2.9 0 -5 2.2 -5 5.1 c 0 2.9 2.2 5.1 5 5.1 c 1.4 0 2.7 -0.5 3.5 -1.4 c 0.9 0.9 2.1 1.4 3.5 1.4 c 1.4 0 2.7 -0.5 3.5 -1.4 c 0.9 0.9 2.1 1.4 3.5 1.4 c 2.9 0 5 -2.2 5 -5.1 s -2.2 -5.1 -5 -5.1 C 89 45.6 87.8 46.1 86.9 47 M 31.5 42.4 l 9.7 9.6 l -2.2 2.2 l -9.7 -9.6 L 31.5 42.4 M 25.3 52.1 l 8 8 c -1.1 1.2 -1.7 2.8 -1.7 4.5 c 0 1.8 0.7 3.5 2 4.8 l 24.8 24.8 c 1.3 1.3 3 2 4.8 2 c 1.7 0 3.3 -0.6 4.5 -1.7 l 8 8 c -1.4 0.2 -2.7 0.4 -4.1 0.4 c -8.5 0 -16.7 -4.9 -29.2 -17.3 C 28.4 71.5 23.5 62.4 25.3 52.1 M 75.7 86.4 l 9.7 9.6 l -2.2 2.2 l -9.7 -9.6 L 75.7 86.4 M 83.5 24 c -12.9 0 -23.3 10.4 -23.3 23.3 s 10.4 23.3 23.3 23.3 v 8.2 l 8.7 -9.9 c 8.6 -3.5 14.6 -11.8 14.6 -21.7 C 106.8 34.5 96.4 24 83.5 24 L 83.5 24 z M 90.4 52.9 c -1.2 0 -2 -0.9 -2 -2.1 c 0 -1.3 0.9 -2.1 2 -2.1 s 2 0.9 2 2.1 C 92.4 52 91.6 52.9 90.4 52.9 L 90.4 52.9 z M 83.3 52.9 c -1.2 0 -2 -0.9 -2 -2.1 c 0 -1.3 0.9 -2.1 2 -2.1 s 2 0.9 2 2.1 C 85.4 52 84.6 52.9 83.3 52.9 L 83.3 52.9 z M 76.3 52.9 c -1.2 0 -2 -0.9 -2 -2.1 c 0 -1.3 0.9 -2.1 2 -2.1 s 2 0.9 2 2.1 C 78.3 52 77.5 52.9 76.3 52.9 L 76.3 52.9 z M 31.5 38.7 c -0.4 0 -0.7 0.1 -1 0.4 l -5.4 5.4 l 13.9 13.9 l 5.4 -5.4 c 0.5 -0.5 0.5 -1.4 0 -2 L 32.5 39.1 C 32.2 38.8 31.9 38.7 31.5 38.7 L 31.5 38.7 z M 23.8 46.4 c -5.3 15 1.2 25.9 16.4 41.1 c 11.7 11.7 20.9 18.2 31.4 18.2 c 3.1 0 6.4 -0.6 9.9 -1.8 L 67.7 90.2 l -1.9 1.9 c -0.7 0.7 -1.7 1.1 -2.7 1.1 s -1.9 -0.4 -2.7 -1.1 L 35.7 67.2 c -1.5 -1.5 -1.5 -3.8 0 -5.3 l 1.9 -1.9 L 23.8 46.4 L 23.8 46.4 z M 75.7 82.8 c -0.4 0 -0.7 0.1 -1 0.4 l -5.4 5.4 l 13.9 13.9 l 5.4 -5.4 c 0.5 -0.5 0.5 -1.4 0 -2 L 76.6 83.2 C 76.4 82.9 76 82.8 75.7 82.8 L 75.7 82.8 z">
                </path>
            </g>
            <g display="none">
                <path display="inline" fill="#111111"
                    d="M 95.3 30.9 c 1.5 0 2.8 0.6 3.8 1.6 c 1.3 1.3 1.8 3.2 1.5 4.9 l -6.4 -6.4 C 94.6 30.9 94.9 30.9 95.3 30.9 M 87.8 36.1 l 7.7 7.7 l -0.9 0.9 l -7.7 -7.7 L 87.8 36.1 M 80.9 43 l 7.7 7.7 L 46.7 92.7 l -7.7 -7.7 L 80.9 43 M 34.5 92.5 l 4.6 4.6 l -1.5 0.4 l -3.5 -3.5 L 34.5 92.5 M 95.3 27.9 c -2.2 0 -4.3 0.8 -6 2.5 l 11.9 11.9 c 3.3 -3.3 3.3 -8.6 0 -11.9 C 99.6 28.7 97.5 27.9 95.3 27.9 L 95.3 27.9 z M 87.8 31.9 l -5.1 5.1 l 11.9 11.9 l 5.1 -5.1 L 87.8 31.9 L 87.8 31.9 z M 80.9 38.8 L 34.7 85 l 11.9 11.9 L 92.8 50.7 L 80.9 38.8 L 80.9 38.8 z M 33 86.7 l -2.2 8.2 l 6 6 l 8.2 -2.2 L 33 86.7 L 33 86.7 z M 30.1 97.3 l -1.5 5.7 l 5.7 -1.5 L 30.1 97.3 L 30.1 97.3 z">
                </path>
            </g>
            <path fill="#111111"
                d="M 65.4 38.9 c -12.1 0 -21.9 9.8 -21.9 21.9 c 0 5.4 2 10.4 5.3 14.2 c 0 0 4.3 4.5 6.1 8.8 c -0.5 0.5 -0.8 1.2 -0.8 2 v 3.1 l -0.5 0.2 c -0.8 0.3 -1.2 1.1 -0.9 1.9 c 0.2 0.6 0.8 1 1.4 1 v 3.3 l -0.5 0.2 c -0.8 0.3 -1.2 1.1 -0.9 1.9 c 0.2 0.6 0.8 1 1.4 1 v 1.9 c 0 1.7 1.4 3.1 3.1 3.1 h 0.6 c 0 4.1 3.4 7.5 7.5 7.5 c 4.1 0 7.5 -3.4 7.5 -7.5 h 0.6 c 1.7 0 3.1 -1.4 3.1 -3.1 v -3.4 l 0.5 -0.2 c 0.8 -0.3 1.2 -1.1 0.9 -1.9 c -0.2 -0.6 -0.8 -1 -1.4 -1 V 90.6 l 0.5 -0.2 c 0.8 -0.3 1.2 -1.1 0.9 -1.9 c -0.2 -0.6 -0.8 -1 -1.4 -1 v -1.7 c 0 -0.8 -0.3 -1.5 -0.8 -2 c 1.8 -4.3 6.1 -8.8 6.1 -8.8 c 3.3 -3.8 5.2 -8.8 5.2 -14.2 C 87.2 48.7 77.5 38.9 65.4 38.9 z M 61.7 76.7 c -0.6 -1.9 -2.1 -7.1 -3.1 -10.7 c 0 0 0.1 0 0.1 0 c 0.9 0 1.6 -0.4 2.3 -1.1 c 1 1.2 2.4 2.2 4.2 2.2 s 3.3 -1 4.2 -2.2 c 0.7 0.7 1.5 1 2.3 1.1 c 0 0 0.1 0 0.1 0 c -1 3.6 -2.5 8.8 -3.1 10.7 c -0.5 1.6 -0.9 3.9 -1.3 5.9 h -4.8 C 62.7 80.6 62.2 78.3 61.7 76.7 z M 57.1 85.8 c 0 -0.1 0.1 -0.1 0.1 -0.1 h 6.2 l -6.4 2.2 V 85.8 z M 57.1 91 l 10.1 -3.5 c 0.8 -0.3 1.2 -1.1 0.9 -1.9 h 5.3 c 0.1 0 0.1 0.1 0.1 0.1 v 2.7 l -16.5 5.8 V 91 z M 65.4 107.9 c -2.5 0 -4.5 -2 -4.5 -4.5 h 9 C 69.9 105.9 67.9 107.9 65.4 107.9 z M 73.6 100.3 c 0 0.1 -0.1 0.1 -0.1 0.1 h -6.9 l 7.1 -2.5 V 100.3 z M 73.6 94.8 l -10.1 3.5 c -0.8 0.3 -1.2 1.1 -0.9 1.9 c 0 0.1 0.1 0.1 0.1 0.2 H 57.3 c -0.1 0 -0.1 -0.1 -0.1 -0.1 v -2.9 l 16.5 -5.8 V 94.8 z M 79.8 73 c -1.1 1.1 -4.8 5.2 -6.7 9.7 h -2.3 c 0.3 -1.8 0.6 -3.7 1.1 -5 c 1 -3.1 4 -14 4.1 -14.5 c 0.2 -0.7 -0.2 -1.5 -0.8 -1.8 c -0.7 -0.3 -1.5 0 -1.9 0.6 c -0.3 0.5 -0.9 1 -1.2 1 c -0.2 0 -0.7 -0.3 -1.3 -1.6 c -0.3 -0.5 -0.8 -0.9 -1.4 -0.8 c -0.6 0 -1.1 0.4 -1.3 1 c 0 0 -0.9 2.5 -2.7 2.5 c -1.8 0 -2.7 -2.5 -2.7 -2.5 c -0.2 -0.6 -0.7 -1 -1.3 -1 c -0.6 0 -1.2 0.3 -1.4 0.8 c -0.6 1.2 -1.1 1.5 -1.3 1.6 c -0.3 0 -0.9 -0.5 -1.2 -1 c -0.4 -0.6 -1.2 -0.9 -1.9 -0.6 c -0.7 0.3 -1.1 1.1 -0.9 1.8 c 0.1 0.5 3.1 11.4 4.1 14.5 c 0.4 1.3 0.8 3.2 1.1 5 h -2.3 c -1.8 -4.4 -5.6 -8.6 -6.7 -9.7 c -2.9 -3.4 -4.5 -7.7 -4.5 -12.2 c 0 -10.4 8.5 -18.9 18.9 -18.9 s 18.9 8.5 18.9 18.9 C 84.2 65.3 82.7 69.6 79.8 73 z M 63.9 33.4 V 20.9 c 0 -0.8 0.7 -1.5 1.5 -1.5 s 1.5 0.7 1.5 1.5 v 12.5 c 0 0.8 -0.7 1.5 -1.5 1.5 S 63.9 34.2 63.9 33.4 z M 39.3 60.8 c 0 0.8 -0.7 1.5 -1.5 1.5 H 25.3 c -0.8 0 -1.5 -0.7 -1.5 -1.5 s 0.7 -1.5 1.5 -1.5 h 12.5 C 38.6 59.3 39.3 60 39.3 60.8 z M 106.6 60.8 c 0 0.8 -0.7 1.5 -1.5 1.5 H 92.6 c -0.8 0 -1.5 -0.7 -1.5 -1.5 s 0.7 -1.5 1.5 -1.5 h 12.5 C 105.9 59.3 106.6 60 106.6 60.8 z M 35 34.9 c -0.6 -0.6 -0.6 -1.5 0 -2.1 c 0.6 -0.6 1.5 -0.6 2.1 0 l 8.8 8.8 c 0.6 0.6 0.6 1.5 0 2.1 c -0.3 0.3 -0.7 0.4 -1.1 0.4 s -0.8 -0.1 -1.1 -0.4 L 35 34.9 z M 84.8 43.7 c -0.6 -0.6 -0.6 -1.5 0 -2.1 l 8.8 -8.8 c 0.6 -0.6 1.5 -0.6 2.1 0 c 0.6 0.6 0.6 1.5 0 2.1 l -8.8 8.8 c -0.3 0.3 -0.7 0.4 -1.1 0.4 S 85.1 44 84.8 43.7 z">
            </path>
        </g>
    </g>
    <g id="SvgjsG1424"
        transform="matrix(0.8,0,0,0.8,-0.4,127)"
        fill="#111111">
        <path
            d="M 25 40.4 c -0.1 -0.1 -0.3 -0.2 -0.4 -0.3 c 0.1 0 -0.9 -0.9 -0.9 -1.4 c 0 -0.2 -0.9 -1 -0.9 -1.4 c 0 -0.4 -1.2 -0.9 -1.2 -1.7 c -0.6 -1.2 -1 -1.2 -1 -1.6 c 0 0 0.1 0 0.1 0 s -1 -0.7 -0.8 -1.1 c 0 0 0 0 -0.1 0 c -0.1 0 -0.3 -0.2 -0.9 -1.4 c 0 -0.2 -0.8 -0.6 -1 -1.4 c -0.8 -0.5 -0.1 -0.8 -1.7 -2.4 c -0.5 -0.4 0.4 0.4 -1.4 -2.2 c 0 -0.1 0 -0.1 0.1 -0.2 c 0 -0.1 -0.1 -0.1 -0.3 -0.1 l 0 0 c 0 -0.2 -0.6 -0.5 -0.6 -0.8 c 0 -0.2 -0.4 -0.9 -1 -1.6 c 0 0 0 0.1 0 0.1 l 0 0 s 0 0 0 -0.1 c 0 -0.2 -0.2 -0.6 -1 -1.5 c 0 -0.5 -0.8 -0.7 -1 -1.5 c 0 -0.2 -1.2 -1.2 -1.2 -1.8 l 0 0 c 0 -0.2 -0.7 -0.6 -1 -1.4 c 0 -0.5 -0.8 -0.8 -0.8 -1.4 c -0.2 0 -0.3 -0.7 -1.4 -1.8 c -0.2 0 -0.5 0.2 -0.5 0.4 l 0 1.5 c 0 0.1 0 0.2 0 0.3 c 0 0 0 1.3 0 1.4 c 0 1.4 0 1.7 0 2.1 c 0 2.1 0 2.6 0 3.3 c 0 1.4 0.1 2.5 0.1 4 c 0 0 -0.1 0.2 -0.1 0.7 l 0 11.6 c 0.1 0.1 0.3 0.4 0.5 0.4 l 2.8 0 c 0.4 0 0.9 0.2 0.9 0.8 c 0 0.4 -0.3 0.4 -0.6 0.4 l -2.7 0 l -0.5 -0.2 l 0.2 0 l -0.2 -0.2 l 0 0.3 c -0.3 0 -2.6 0.1 -2.6 0.1 c 0 0 -0.1 0 -0.2 0 c 0.1 0 0.2 -0.1 0.2 -0.2 c -0.3 0 -0.3 0 -0.4 0.2 l -0.8 0 l -0.1 -0.1 l 0.1 -0.1 l -0.1 -0.1 c -0.1 0 -0.4 0.1 -0.4 0.2 l 0.1 0.1 c -0.3 0.1 -0.4 0 -0.8 0 s -0.9 0 -0.9 -0.5 c 0 -0.9 1.5 -0.9 2.6 -0.9 l 0.2 0.1 l 1 0 l 0 0 c 0.4 0 0.4 -1.7 0.4 -2.4 c 0 -6.3 -0.2 -7.8 -0.2 -20.6 c 0.2 -0.5 0.2 -2.2 0.2 -3.2 c 0 -0.9 -0.1 -1.5 -1.3 -1.5 c -1.3 0.1 -1 0.3 -1.7 0.3 c -0.6 0 -1.3 -0.2 -1.3 -0.9 c 0 -0.4 0.8 -1 1.2 -1 c 1.2 0 -0.1 0.4 3.1 0.4 c 0.4 0 0.7 -0.1 0.9 -0.1 c 0.6 0 1.2 0.1 1.8 0.1 c 0.3 0 0.6 0 0.8 -0.1 c 0.1 0.1 0.5 0.1 0.6 0.1 l 2 0 c 1 0 1.9 2 1.9 2 c 0.1 0 1.4 2.1 1.4 2.3 c 0 0 3.2 4.8 4.1 6.2 l 0 0 c 0 0.1 0.6 0.4 0.6 0.9 l 0 0 l 0 0 c 0 0.1 0.8 0.8 0.8 1.1 c 1.1 1.5 0.5 1.4 1.7 2.5 l 0.6 1.2 c 0 0.1 0.9 0.9 0.9 1.4 c 0.5 0 0.7 1.8 1.4 1.8 c 0.2 0 0.4 0 0.4 -0.2 l 0 -3.2 c 0 0 0.1 -0.3 0.1 -0.3 c 0 -0.4 -0.1 -0.7 -0.1 -1 c 0 -1.3 -0.1 -8.1 -0.1 -12.5 c -0.1 -0.4 -0.2 -0.6 -0.4 -0.8 c -1.4 0 -1.4 0.1 -1.8 0.1 c -1.3 0 -1.6 0.1 -1.6 -0.8 c 0 -0.5 0.6 -0.6 1.4 -0.6 c 0.7 0 1.8 0 3.1 0.2 c 0.1 0 0.5 -0.1 0.6 -0.1 c 0.2 0 0.5 0.1 0.7 0.1 c 1 -0.1 1.9 -0.2 2.6 -0.2 c 0 0.1 0.8 0.2 0.8 0.5 l 0 0.7 c 0 0.2 -0.7 0.2 -0.9 0.2 c -0.4 0 -1 -0.1 -1.4 -0.1 c -1.3 0.3 -1.6 -0.4 -1.6 1.1 l 0 6 c 0 0.4 0 0.6 0 1.2 c 0 0.8 0 5.8 -0.1 6 c 0 -0.1 0.1 4 0.1 4.5 c 0 1.6 -0.1 1.4 -0.1 1.7 c 0 0.2 0.1 0.9 0.1 1.1 l 0 -0.1 c 0 0 -0.1 0.5 -0.1 3 c 0 1.6 0.1 3.2 0.1 3.9 c 0 0.3 -0.1 0.4 -0.6 1 c 0 0 0 0.1 0 0.1 s -0.1 -0.2 -0.4 -0.2 z M 25 40.1 l 0 0 l 0.1 0 z M 1.3 39.9 c 0 0 0 0.1 0.1 0.1 c 0 -0.1 -0.1 -0.1 -0.1 -0.1 z M 1.9 39.9 c -0.1 0 -0.1 0 -0.2 0.1 l 0.1 0 s 0.1 0 0.1 -0.1 l 0 0 z M 2.9 39.9 l 0.1 0.1 c 0.1 0 0.4 -0.2 0.4 -0.6 l -0.2 0 c 0 0.2 0 0.4 -0.2 0.6 z M 4.4 39.9 c 0 0 0 0 -0.1 0 c 0 0 0 0 0 0 s 0 0.1 0 0.1 c 0 0 0.1 0 0.1 -0.1 z M 7.8 39.8 c 0 0 0 0 0 0.1 s 0 0.1 0 0.1 c 0 0 0 0 0 -0.1 s 0 -0.1 0 -0.1 z M 8.4 39.8 l 0 0.1 l 0.1 0 l 0 -0.1 l -0.1 0 z M 9.9 39.8 c 0 0 -0.1 0 -0.1 0.1 s 0 0.1 0.1 0.1 s 0 0 0 -0.1 s 0 -0.1 0 -0.1 z M 3.4 39.8 c 0 0 -0.1 0 -0.1 0 l 0.1 0 c 0 0 0 0 0 0 z M 9.2 39.8 c -0.1 0 -0.1 0 -0.2 0 z M 1 39.5 l 0 0.1 l 0 -0.1 l 0 0 z M 1 39.4 c 0.1 0 0.2 0 0.3 0.2 c 0.1 0 0.2 -0.1 0.3 -0.2 l -0.6 0 l 0 0.1 z M 10 39.3 l 0 0.2 l 0.1 0 c 0 -0.1 0 -0.2 -0.1 -0.2 z M 9.8 39.2 c -0.1 0 -0.2 0 -0.2 0.2 c 0 0 0 0 0 0.1 c 0.1 0 0.2 -0.1 0.2 -0.2 z M 5.3 38.7 c 0 0.1 0 0.2 0.1 0.2 s 0.3 -0.1 0.3 -0.1 l 0 -0.1 l -0.4 0 z M 5.8 38.1 l 0 0.2 l 0 0 c 0 0 0 -0.1 0 -0.2 z M 5.4 36.4 c -0.1 0 -0.1 0.1 -0.1 0.1 l 0.1 -0.1 l 0 0 z M 5.3 34.3 c 0 0 0 0 0 0.1 l 0.1 0 c 0 0 0 -0.1 0 -0.1 z M 5.7 33.7 l 0 0 l 0 0 z M 20.5 33.7 l 0 0 l 0 0 z M 5.4 32.3 l 0.2 0.2 c 0 0 0 -0.1 0 -0.1 s -0.1 -0.1 -0.2 -0.2 c -0.2 0 -0.2 0 -0.3 0 c 0 0.1 0 0.1 0.1 0.2 c 0.1 0 0.2 -0.1 0.2 -0.1 z M 5.7 31.4 l 0.1 0.1 c 0 0 0 -0.1 0 -0.2 c 0 0 -0.1 0 -0.1 0.1 z M 5.2 30.4 c 0 0 -0.1 0 -0.1 0 s 0 0 0.1 0 s 0 0 0 0 s 0 0 0 0 z M 5.1 26.4 c 0 0 -0.1 0 -0.1 0.1 l 0.1 0 l 0 0 c 0 0 0 -0.1 0 -0.1 z M 5.1 26 l 0 0.2 c 0 0 0 0 0 0 c 0.1 0 0.1 -0.2 0.1 -0.2 l -0.2 0 z M 5.1 24.9 c 0 0 -0.1 0 -0.1 0 c 0 0 0 0 0.1 0 s 0 0 0 0 c 0 0 0 0 0 0 z M 5.1 18.6 c 0 0 -0.1 0 -0.1 0.1 s 0 0.1 0.1 0.1 s 0 0 0 -0.1 s 0 -0.1 0 -0.1 z M 5 18.4 c 0 0 0 0 0 0.1 l 0.1 0 c 0 0 0 -0.1 0 -0.1 z M 26.2 11 c 0 0 0 0 0 0 s 0 0.1 0 0.1 c 0 0 0 0 0 -0.1 s 0 0 0 0 z M 27.1 10.8 c 0 0.1 0.1 0.1 0.2 0.1 l 0.2 -0.5 c 0.2 0 0.4 0.2 0.6 0.2 c 0 0 0.1 0 0.1 -0.2 c 0 -0.2 -0.3 -0.2 -0.6 -0.2 l 0 0 s -0.5 0.2 -0.5 0.5 c 0 0 0 0 0 0.1 z M 29.2 10.2 l 0 0 c 0 0.1 0.2 0.6 0.2 0.8 c 0 0 0.2 0 0.2 -0.5 c 0 -0.3 -0.4 -0.2 -0.4 -0.3 z M 26.6 10.8 c 0 0 0 0 0 0.1 c 0 0 0 0 0 0 s 0 0 0 0 c 0 0 0 -0.1 0 -0.1 z M 26.6 10.8 c 0 0 0 0 0 0 c 0 0 0 0 0 0 c 0 0 0 0 0 0 z M 3.3 10.6 c 0 0 0 0 0 0 c 0 0 0.1 0.1 0.2 0.2 l 0 -0.2 l -0.2 0 z M 5.6 10.6 c 0 0 0.1 0.2 0.1 0.2 c 0 0 0 0 0 0 l 0 -0.2 l 0 0 l 0 0 c 0 0 0 0 -0.1 0.1 z M 1 10.4 l 0 0.2 c 0.1 -0.1 0.2 -0.1 0.2 -0.2 c 0 0 -0.1 0 -0.1 0 s 0 0 0 0 l 0 0.1 z M 4.6 10.4 c 0 0.1 0 0.1 0.1 0.2 c 0 0 0.1 -0.1 0.1 -0.2 l -0.2 0 z M 24.2 10.4 l 0 0.2 l 0 0 z M 25.2 10.3 l 0 0.2 c 0.1 0 0.2 -0.2 0.2 -0.2 l -0.2 0 z M 25.5 10.3 c 0 0.2 0 0.2 0.1 0.2 c 0 0 0 0 0 0 c 0 -0.1 -0.1 -0.2 -0.1 -0.2 l 0 0 z M 21.4 10.2 l 0 0 s 0.2 0.2 0.3 0.2 c 0 0 0 0 0.2 -0.2 c 0 0 -0.3 0 -0.4 0 z M 28.5 10.3 c -0.1 0 -0.1 0.1 -0.1 0.2 c 0 0 0.1 -0.1 0.2 -0.2 l -0.1 0 z M 2.5 10.3 c 0 0.1 0 0.1 0.1 0.1 s 0 0 0.1 0 l 0 -0.1 l -0.2 0 z M 21.1 10.2 l 0 0 l 0 0 z M 36.4 39.4 c 0.2 -0.6 0.3 -0.7 0.8 -0.7 c 1.3 0 1.6 0.1 2.6 0.1 c 0.4 0 0.5 -0.3 0.7 -0.5 l -0.1 -6.2 c 0 -0.1 0.1 -0.2 0.1 -0.3 c 0 0 -0.1 -0.6 -0.1 -0.7 c 0 0 0 -0.8 0.1 -1.2 c 0 0 -0.1 -0.2 -0.1 -0.2 l 0 -2.8 c 0.1 -0.1 0.1 -0.2 0.1 -0.3 c 0 -0.2 -0.1 -0.4 -0.1 -0.6 c 0 0 -0.1 -9.6 -0.1 -12.7 l 0.1 -0.2 l 0 -1.9 c -0.3 -0.4 -1.2 -0.1 -1.3 -0.3 l -0.2 0.1 l 0 0 c -0.1 0 -0.3 -0.1 -0.8 -0.1 c -0.1 0 -0.5 0.1 -0.6 0.2 c -0.6 0 -1.1 0.1 -1.1 -0.7 c 0 -0.3 0.2 -0.8 1.5 -0.8 c 0.2 0 0.5 0.1 0.8 0.1 c 0.2 0 2.2 -0.1 2.3 -0.1 c 0.3 0 0.8 0.1 0.9 0.1 c 0.2 0 2.2 -0.2 3.2 -0.2 c 0.1 0 0.1 0.4 0.4 0.4 c 0 0 0 0 0 0 s 0 -0.1 0 -0.2 c 0.4 0 0.9 -0.1 1.5 -0.2 c 0 0 0.2 0.1 0.2 0.1 c 0 0 0.1 -0.1 0.1 -0.2 c 0 0 0.2 0 0.3 0.1 c 0.2 0 0.7 -0.2 0.8 -0.2 c 1.6 0 1.6 0.7 1.6 1.1 c 0 0.2 -0.3 0.6 -0.5 0.6 c -0.8 0 -2.3 -0.2 -2.7 -0.2 c -0.3 0 -0.5 0.5 -0.5 0.8 l 0 13.4 c 0 0.2 0 0.8 0 0.8 c 0 0 0 0 0 0.6 c 0 1.4 0 2 0 2.7 c 0 1.1 0 1 0 1.2 l 0 4.6 c 0 0.2 -0.1 3.4 0.5 3.5 c 0.1 0 1.5 0 2.2 0 l 0.1 -0.1 l 0.7 0 c 0.4 0.2 0.5 0.6 0.5 0.8 c 0 0.2 -0.3 0.7 -0.4 0.7 c -1.9 0 -4.8 0.1 -5.2 0.1 c 0 0 -1.2 -0.1 -1.8 -0.1 c -1.8 0 -4 0.1 -5.3 0.1 c -1 0 -1.2 -0.3 -1.2 -0.7 z M 37.2 39.8 c 0 0 0 0 -0.1 0 s -0.1 0 -0.1 0 s 0 0.1 0.1 0.1 s 0.1 0 0.1 -0.1 z M 37.5 39.8 c 0.2 0 0.2 0.1 0.4 0.1 c 0.1 0 0.2 0 0.3 -0.1 c -0.3 0 -0.4 -0.3 -0.5 -0.3 c 0 0 -0.2 0 -0.2 0.2 l 0 0.1 z M 38.3 39.8 c 0 0 -0.1 0 -0.1 0.1 s 0 0.1 0.1 0.1 c 0 0 0 0 0 -0.1 s 0 -0.1 0 -0.1 z M 39.3 39.7 l 0.1 0.1 c 0.2 0 0.2 0 0.3 -0.1 l -0.1 0 c -0.4 0 -0.2 0 -0.3 0 z M 47.9 39.4 c -0.2 0.1 -0.2 0.2 -0.2 0.4 c 0.2 -0.1 0.2 -0.2 0.2 -0.4 l 0 0 z M 49.2 39.4 c -0.3 0 -0.3 0.3 -0.3 0.4 l 0.5 0 c 0 -0.3 -0.1 -0.4 -0.2 -0.4 z M 46.2 39.6 l -0.1 0 c 0 0 0 0 0 0 z M 46.7 39.7 l -0.1 0 z M 49.7 39.3 l 0 0.2 c 0.1 0 0.2 -0.2 0.2 -0.2 l -0.2 0 z M 37 39 c -0.3 0 -0.3 0.3 -0.3 0.4 c 0.2 -0.1 0.4 -0.1 0.4 -0.2 c 0 0 0 -0.2 -0.2 -0.2 z M 40 39.3 l 0.1 0.1 l 0 -0.1 l -0.1 0 z M 37.6 39.1 l 0 0.1 l 0.1 -0.1 l -0.1 0 z M 48.8 39 c 0 0 0 0 0 0.1 s 0 0 0.1 0.1 l 0.1 -0.1 l -0.1 -0.2 c 0 0 -0.1 0 -0.1 0.1 z M 49.5 39.1 c 0 0.1 0.1 0.1 0.2 0.1 c 0 0 0 -0.1 0 -0.2 z M 40.8 38.6 c 0 0 0 0 0 0.1 s 0.1 0 0.2 0 l 0 -0.1 l -0.2 0 z M 45.6 12.8 c 0 0 -0.1 0 -0.1 0 l 0.1 0 l 0 0 c 0 0 0 0 0 0 z M 47.6 10.6 c 0 0 -0.1 0 -0.1 0.1 s 0 0.1 0.1 0.1 s 0 0 0 -0.1 s 0 -0.1 0 -0.1 z M 36.6 10.3 c 0 0 -0.1 0 -0.1 0.1 c 0 0 0 0 0.1 0 s 0 0 0 0 c 0 0 0 -0.1 0 -0.1 z M 38.9 10.1 c 0 0 -0.1 0 -0.1 0.1 c 0 0 0 0 0.1 0 l 0 -0.1 z M 39.4 10.1 c 0 0 0 0 0 0 c 0 0 0 0 0.1 0.1 l 0 -0.1 l -0.1 0 z M 36.9 10 c -0.2 0 -0.1 0 -0.1 0.1 c 0.1 0 0.2 0 0.2 -0.1 z M 66.5 39.5 c 0 0 -0.3 0 -0.4 0 c -1.8 -1.1 -2.2 -1.2 -2.9 -1.5 c 0 -0.7 -0.8 -0.5 -1.1 -0.9 c 0 -0.3 -1.3 -0.7 -1.3 -1.4 c -0.7 -0.1 -0.4 -0.9 -0.9 -1.1 c 0.1 -0.1 -0.8 -0.6 -0.8 -1.1 c 0 -0.5 -1 -1.6 -1 -2 c 0 -0.6 -0.9 -2.1 -0.9 -3 c 0 0 -0.5 -2.1 -0.5 -2.8 c 0 -1 0.1 -1.8 0.1 -2.5 c 0 0 0.7 -2.6 0.7 -2.9 c 0 0 -0.1 0 -0.1 -0.1 c 0 -0.2 0.6 -0.6 0.6 -1.2 c 0.4 -1.3 -0.2 0.1 0.8 -1.8 c 0.5 0 0 -0.3 0.8 -1.2 l 0 0.1 c 0 0 0 -1 0.6 -1 c 0 0 0.4 -1.1 1.4 -1.7 c 0.1 0 0.2 -0.5 0.4 -0.5 c 2.4 -2 1.9 -1.3 2.8 -2.2 l 0 0.1 c 0.2 0 1 -0.6 1.2 -0.6 c 0 0 0.8 -0.7 2 -0.7 c 0.1 0 0.1 0 0.1 0 c 0.2 0 -0.4 -0.5 3.2 -0.5 c 1.5 0 1.4 0.3 2.6 0.3 c 0 0 0 0 0 0 c 0 0 0.5 0.4 0.8 0.4 l 1.2 0.2 l 0.4 0.3 l 0 0.1 c 0.2 0 1.2 0.5 1.3 0.5 c 0 0 0 0.1 0.1 0.1 c 0.1 0 0.2 -0.3 0.6 -0.4 c 1 -0.1 0 -0.6 1.9 -0.6 c -0.4 0.2 0.5 -0.3 0.5 0.6 c 0 1.8 0.2 3 0.2 5 c 0 0.3 -0.1 0.5 -0.1 0.7 c 0 0.2 0.2 0.8 0.2 2.2 c 0 0.6 -0.2 0.4 -0.4 0.6 l -1 0 c -0.1 0 -0.7 -1 -0.8 -1.2 l 0 0 c -0.1 0 -0.2 -0.8 -0.5 -1.1 c 0 0 -0.3 -1.3 -0.9 -2.1 c 0 -0.1 -0.9 -0.9 -0.9 -1.1 c 0 0 0 0 0 0 c 0 -0.1 -0.8 -0.6 -0.8 -0.7 c 0 -0.5 -1.1 -0.7 -1.1 -1.2 c -0.4 0 -1 -1.1 -3.1 -1.1 c -2.6 0 -3.3 0.1 -4.2 0.6 c 0 0.3 -1.2 0.2 -1.2 0.9 c 0 0 -0.4 0.3 -0.5 0.3 c -0.1 0.1 -0.2 0.1 -0.2 0.2 s 0 0 0 0.1 l 0 0 c -0.1 0 -1.5 2.4 -1.5 3.6 c 0 0.2 -0.2 1.1 -0.2 1.1 l -0.1 1.6 l -0.1 0.1 l 0 0.8 c -0.1 0 -0.2 1.5 -0.2 1.9 c 0 0 0 0.2 0 0.6 c 0 0 0 0.4 0 0.7 c 0 0.4 0 0.9 0 1.1 c 0 0.1 0 0.2 0 0.2 c 0 0.2 0 0.6 0 0.9 c 0 0 0 0.1 0 0.2 c 0 0.3 0 0.7 0 1 c 0 0.5 0 0.5 0 0.8 s 0 0.5 0.2 0.8 c 0 0.3 0 0.3 0 0.4 l 0 0.2 c 0 0.5 0 0.7 0 0.8 c 0.1 3.6 0.8 6.3 1.4 6.6 c 0 0.3 -0.3 0.2 1.4 2 c 0 0 0.8 1 1.8 1 l 0 0 c 0 0 0.5 0.4 1.7 0.4 c 3 0 3.3 0.1 4 -0.7 c 0.2 -0.2 1 -0.3 1.1 -0.3 c 0.7 -1.1 0.7 -0.5 1.1 -1.1 c -0.1 -0.2 0.9 -0.9 1.4 -1.6 c 0 0 0.2 -1.2 0.8 -1.8 l 0 0 l 0 0 c 0 -0.1 0.8 -1.6 1 -1.7 c 0 0.1 0 0.1 0 0.1 s 0.2 -1.4 1 -1.4 c 0 0 0.1 0 0.1 0 c 0.1 0 0.2 -0.1 0.3 -0.1 c 0.1 0 0.3 0.1 0.7 0.4 c 0 2.4 -0.2 3.5 -0.2 4.9 c 0 0.2 0 0.4 0 0.4 l 0 2.8 c -0.1 0.3 -0.1 0.9 -0.7 0.9 c -1.9 0 -0.2 -0.1 -2.5 -1 c -0.2 0 -0.7 0.3 -1 0.3 c 0 0 0 0 -0.1 0 c -0.2 0 -0.7 0.8 -1.1 0.8 c 0.1 0 -2.4 0 -2.9 0.5 c -0.4 0 -0.7 -0.1 -1.1 -0.1 c 0 0.2 -1 0 -1 0.2 c -1.7 0 -2.3 -0.5 -3.2 -0.5 c -0.4 0 -1.1 0 -1.1 -0.4 z M 72.2 40 c 0 0 -0.1 0 -0.1 0.1 s 0 0.1 0.1 0.1 l 0 -0.2 z M 72.1 39.9 c 0 0 -0.1 0 -0.1 0.1 s 0 0.1 0.1 0.1 s 0 0 0 -0.1 s 0 -0.1 0 -0.1 z M 68.5 39.8 l 0.1 0 l 0 0 l -0.2 0 z M 67.7 39.6 c 0 0 0 0 0 0.1 s 0 0.1 0 0.1 s 0 0 0 -0.1 s 0 -0.1 0 -0.1 z M 66.5 39.2 l 0 0.1 l 0 0 z M 80.5 39.1 c 0 0 0 0 0 0 l 0.1 0 c 0 0 0 0 0 0 z M 80.8 34.4 c 0 0 0 0 0 0 c 0 0 -0.1 0 -0.1 0.1 c 0.1 0 0.1 0 0.1 0 z M 80.9 34.2 c 0 0 0 0 0 0 c 0 0 0 0 0 0 s 0 0.1 0 0.1 c 0 0 0 0 0 -0.1 z M 58.9 32.4 c 0 0 -0.2 0.1 -0.2 0.2 c 0.2 0 0.2 0 0.2 -0.2 z M 80.9 31 c 0 0 0 0.1 0 0.2 s 0 0.2 0.1 0.2 l 0.1 -0.1 c 0 -0.1 0 -0.2 -0.2 -0.2 z M 80 31 c 0 0 0.1 0.2 0.2 0.2 c 0 -0.1 0 -0.3 0.4 -0.3 c 0 0 0 -0.1 -0.1 -0.1 c -0.2 0 -0.3 0.2 -0.4 0.2 z M 58.1 30.1 l 0.1 0 z M 57.5 28.4 c -0.1 0 -0.1 0.3 -0.1 0.4 s 0 0.1 0 0.1 c 0.1 0 0.2 0 0.2 -0.1 l 0 -0.3 s -0.1 -0.1 -0.1 -0.1 z M 57.3 28 c 0.1 0 0 0.1 0.2 0.1 c 0 0 0 0 0.2 0 c -0.1 0 -0.3 0 -0.4 0 z M 57.4 24.8 c 0 0 0 0 0 0 l 0 0.1 c 0 0 0 0 0 -0.1 z M 57.3 23 l 0 0.1 c 0.1 0 0.1 0 0.1 -0.2 z M 57.9 20.5 c -0.2 0 -0.2 0.1 -0.2 0.2 c 0.1 0 0.2 -0.1 0.3 -0.2 l -0.1 0 z M 58 20 c 0 0 0 0 0 0 c 0 0 0 0 0 0 s 0 0 0 0 c 0 0 0 0 0 0 z M 58 19.6 c 0 0 0 0 0 0.1 s 0 0 0 0 s 0 0 0 0 s 0 -0.1 0 -0.1 z M 61.8 13.7 c 0 0 0 0 0 0 c 0 0.1 0.1 0.2 0.2 0.2 l 0 -0.4 c -0.2 0 -0.2 0 -0.2 0.2 z M 78.1 13.6 c 0 0 0 0 0 0.1 c 0 0 0 0 0 0 s 0 0 0 0 c 0 0 0 -0.1 0 -0.1 z M 80.4 11.2 l 0.1 0.1 l 0 -0.1 l -0.1 0 z M 66.3 10.3 c -0.2 0.1 -0.1 0.2 -0.1 0.2 c 0.2 0 0.1 -0.1 0.1 -0.2 z M 67.1 10.4 c 0 0.1 0 0.1 0 0.1 l 0 0 l 0 -0.1 l -0.1 0 z M 67.6 10.5 c 0 0 0 0 0 0 c 0 0 0 0 0 0 s 0 0.1 0 0.1 c 0 0 0 0 0 -0.1 z M 66.9 10.2 c 0 0 -0.1 0 -0.1 0.1 s 0 0.1 0.1 0.1 s 0 0 0 -0.1 s 0 -0.1 0 -0.1 z M 73.1 9.7 c 0 0.1 0.1 0.2 0.2 0.2 c 0 0 0 -0.2 0 -0.3 c -0.1 0 -0.1 0 -0.2 0 z M 67.7 9.7 l 0 0.1 l 0 0 z M 67.9 9.6 c 0 0 0 0 0 0.1 c 0 0 0 0 0 0 s 0 0 0 0 c 0 0 0 -0.1 0 -0.1 z M 68.5 9.6 l 0 0 l 0.2 0 z M 106.1 40 c -0.2 0 -0.6 -0.1 -0.6 -0.6 c 0 -0.6 0.6 -0.4 0.8 -0.6 l 2.6 0 c 0.4 -0.5 0.4 -0.4 0.4 -1.2 c 0 -0.4 -0.1 -3.8 -0.1 -4.2 c 0 -2 0 -3.6 0.2 -5.3 c 0 -0.1 0 -0.1 -0.1 -0.2 l 0 -2.2 c -0.2 -0.2 -0.3 -0.7 -0.4 -0.7 c -1.4 0 -1.8 0.1 -2.5 0.1 c -0.2 0 -1.7 -0.1 -2.1 -0.1 l 0 -0.1 l -0.6 0 l 0.1 0.1 c -1.3 0 -1.2 0.1 -2.4 0.1 c -0.3 0 -1.6 0 -2 0 l -1.3 0 l -0.2 0.4 c 0 2.1 0 4.7 -0.2 5.5 c 0 0.2 0.2 0.3 0.2 0.7 l 0 6.7 c 0 0.2 0.3 0.4 0.5 0.6 c 0.9 0 1.9 -0.2 2.4 -0.2 c 0.2 0 0.9 0 0.9 0.7 c -0.1 0 -0.1 -0.1 -0.1 -0.2 c 0 0 -0.2 0.2 -0.2 0.4 c 0.1 0 0.1 0 0.2 0 c 0 0.2 -0.3 0.2 -0.5 0.2 l 0 -0.2 c -0.1 0 -0.3 0.2 -0.4 0.2 c -1 0 -8.6 0.1 -11.9 0.1 c -0.2 0 -0.5 0 -0.6 -0.3 l 0 -0.5 l 0 0 c 0 0 1 -0.4 1 -0.4 c 0.6 0 1 0.2 2.2 0.2 c 0.7 0 0.4 -0.3 0.7 -0.4 c 0 -2.3 -0.1 -2.7 -0.1 -3.4 c 0 -1.9 0.1 -2.6 0.1 -3.4 c 0 -0.6 -0.1 -2 -0.1 -3 c 0 -0.1 0.1 -0.6 0.1 -0.6 c 0 -0.5 -0.1 -1.1 -0.1 -2.5 l 0.1 -0.1 c 0 -0.2 -0.1 -0.3 -0.1 -0.5 l 0 -6.1 l 0.1 -0.1 c 0 0 -0.1 -0.2 -0.1 -0.5 l 0 -6.8 s -0.1 -0.1 -0.1 -0.2 c 0 -0.4 -1.6 -0.4 -1.8 -0.4 c 0 0 -0.6 0.1 -0.8 0.1 c -0.8 0 -1.1 -0.2 -1.2 -0.4 c 0 -0.3 -0.2 -0.7 0.8 -0.9 l 12.4 0 c 0 0 0.4 0 0.4 0.6 c 0 0.3 -0.5 0.8 -0.7 0.8 l -0.1 0 s 0 0 0 0 c 0 0 -0.2 -0.2 -1.2 -0.2 l -1.4 0 c -0.7 0 -0.7 1.9 -0.7 2 c 0 0.1 0.1 0.3 0.1 0.6 c -0.1 0.2 -0.1 0.4 -0.1 0.6 c 0 0.5 0.1 0.7 0.1 1 c -0.1 0.1 -0.1 0.2 -0.1 0.3 c 0 0.2 0.1 0.3 0.1 0.4 l 0 5 c 0 0.2 -0.1 0.7 -0.1 0.7 c 0 0.2 0.1 0.7 0.1 0.9 c -0.1 0.1 -0.1 0.2 -0.1 0.2 s 0.1 0 0.1 0 c 0 0.2 -0.2 0.4 -0.2 0.7 c 0 0.3 0.2 0.6 0.9 0.6 c 2.4 0 4.1 -0.2 6.1 -0.2 c 0 0 0.2 0 0.3 0 l 2.4 0 c 0.1 0 0.3 0.1 0.5 0.1 c 0.4 0 1.1 -0.1 1.1 -0.7 c 0 -2.5 -0.1 -2.8 -0.1 -4.1 c 0 -0.2 0.1 -0.6 0.1 -1 c 0 -1.2 -0.1 -2 -0.1 -2.9 l 0 -0.3 s 0 -0.3 0 -0.4 c 0 -0.7 0 -1 0 -2.1 l 0 0 c 0 -0.1 0.2 -1.5 -0.6 -1.5 c -0.1 0 -0.2 0 -0.3 0 c -0.4 0 -1.1 -0.1 -1.1 -0.1 c -0.3 0 -0.5 0.1 -0.7 0.1 c -1.1 0 -1.2 -0.6 -1.2 -0.6 c 0 -0.4 0.7 -0.8 1.8 -0.8 c 0 0 0 0 0.4 0.1 c 0.7 0 0.7 0 0.8 -0.1 c 0.5 0 0.9 0.1 1.4 0.1 c 0.1 0 0.2 0 0.3 -0.1 c 0.1 0 0.3 0.1 0.4 0.1 l 3.4 0 c 0.2 0 0.6 -0.1 0.7 -0.1 c 0.1 0 0.1 0.1 0.1 0.1 l 1.9 0 l 0.1 -0.1 c 0.6 0.2 1.5 0.1 1.9 0.2 l 0.2 0.2 c 0 0.6 0.1 1.3 -1.3 1.3 c 0 -0.2 -2.3 -0.3 -2.3 -0.3 l 0 0 c 0 0 0 -0.1 0 -0.1 c -0.1 0 -0.2 0.5 -0.4 3.6 c 0 0.2 0.1 0.2 0.1 0.5 c 0 0.1 0 0.2 -0.1 0.3 c 0 0 0.1 0.2 0.1 0.3 l 0.1 2.2 l 0 16.2 c 0 0.1 0.1 0.5 0.1 0.6 c 0 0.1 -0.1 0.3 -0.1 0.8 c 0 0.2 0 0.9 0.1 1.1 l 0 0.2 c 0 2 0.2 2.2 1 2.2 c 0.2 0 0.4 0 0.7 0 c 0.1 0 0.3 0 0.5 0 c 0.2 0 0.5 0 0.6 -0.2 c 1 0.2 1.1 0.4 1.1 1 c 0 0.2 -0.1 0.6 -1 0.6 c -1.4 0 -6.7 -0.3 -11.6 -0.3 z M 88.8 39.8 l 0 -0.1 z M 90.3 39.8 l 0 0.1 l 0.6 0 c 0 -0.2 -0.2 -0.3 -0.3 -0.3 c -0.1 0.1 -0.2 0.3 -0.3 0.2 z M 100.9 39.8 l 0.1 0.1 c 0 0 -0.1 0 -0.1 -0.1 z M 108.9 39.8 l 0 0.1 l 0 -0.1 l 0 0 z M 99.7 39.5 c 0 0.3 0.1 0.2 0.2 0.3 l 0 -0.4 c -0.1 0 -0.1 0 -0.2 0 z M 107.7 39.7 l 0 0 l 0.1 0 z M 109.2 39.7 l 0 0 l 0 0 z M 106.7 39.6 l 0 0.2 c 0 0 0.1 -0.1 0.1 -0.2 l -0.1 0 z M 91.3 39.5 c 0.2 0 0.3 0 0.5 0.2 c -0.1 0 0.2 0 0.2 -0.1 s -0.4 -0.2 -0.7 -0.2 l 0 0.2 z M 105.7 39.2 l -0.1 0.2 l 0.1 0 l 0 -0.2 z M 88.9 39.2 c 0 0 -0.1 0 -0.1 0.1 s 0 0.1 0.1 0.1 s 0 0 0 -0.1 s 0 -0.1 0 -0.1 z M 110.3 39.2 l -0.1 0 c 0 0 0 0.1 0 0.1 c 0 0 0 0 0 -0.1 z M 93 27.9 c 0 0 -0.1 0 -0.1 0.1 c 0 0 0 0 0.1 0 l 0 0 c 0 0 0 -0.1 0 -0.1 z M 96.8 25.7 c -0.1 0 -0.1 0 -0.1 0.1 l 0.1 0 l 0 -0.1 z M 92.5 23 c 0 0 -0.1 0 -0.1 0.1 s 0 0.1 0.1 0.1 s 0 0 0 -0.1 s 0 -0.1 0 -0.1 z M 92.4 19 l 0 0 l -0.1 0 s 0 0 0 0 z M 96.3 18.8 c 0 0 0 0 0 0.1 s 0 0 0.1 0.1 l 0 -0.2 l -0.1 0 z M 92.5 16 l 0 0.1 l 0 0 c 0 0 0.1 0 0.1 -0.1 l -0.2 0 z M 92.5 15.3 l 0.1 0 l 0.1 0 l -0.2 0 z M 110.1 15.1 c 0 0 0 0 0 0.1 s 0 0.1 0 0.1 s 0 0 0 -0.1 s 0 -0.1 0 -0.1 z M 91.3 10.7 c 0 0 0 0.1 0 0.1 c 0.1 0 0.1 -0.1 0.1 -0.2 c -0.1 0 -0.1 0 -0.1 0 z M 114.7 10.7 l 0 0 l 0 0 c 0 0 0 0 0 0 z M 109.7 10.7 l -0.2 0 z M 116.2 10.7 c 0 0 -0.1 0 -0.1 0 s 0 0 0.1 0 l 0 0 z M 88.9 10.2 c -0.3 0 -0.3 0.2 -0.3 0.5 c 0 0 0.3 0 0.3 -0.5 z M 118.3 10.3 l 0 0.3 l 0.2 0 c 0 -0.3 -0.2 -0.3 -0.2 -0.3 z M 91.6 10.5 c 0 0 0 0 0 0.1 l 0 0 c 0 0 0 0 0 0 c 0 0 0 -0.1 0 -0.1 z M 98.8 10.3 c 0 0.1 0.1 0.2 0.1 0.2 c 0.2 0 0.2 0 0.2 0 c 0 -0.2 -0.1 -0.2 -0.2 -0.2 l -0.1 0 z M 108.2 10.4 c 0 0 0 0 0 0 s 0 0.1 0 0.1 c 0 0 0 0 0 -0.1 s 0 0 0 0 z M 117.7 10 c 0 0 0 0.4 0.2 0.5 c 0 -0.1 0 -0.3 0 -0.5 l -0.2 0 z M 105.7 10.2 l 0 0.2 c 0.1 0 0.1 -0.1 0.1 -0.2 l -0.1 0 z M 111.3 10.3 c 0 0 0 0 0 0 c 0 0 0 0 0 0 s 0 0 0 0 c 0 0 0 0 0 0 z M 113.6 10.2 l 0 0 c 0 0 0 0 0 0 c 0 0 0 0 0 0 c 0 0 0 0 0 0 z M 91.6 10.2 c 0 0 0 0 0 0.1 l 0 0 c 0 0 0 0 0 0 c 0 0 0 -0.1 0 -0.1 z M 100.5 10.2 l 0 0 c 0 0 0 0 0 0 c 0 0 0 0.1 0 0.1 c 0 0 0 0 0 -0.1 z M 98.8 10.1 c 0 0 -0.1 0 -0.1 0.1 c 0 0 0 0 0.1 0 l 0 -0.1 z M 109.7 10.1 c 0 0 0 0 0 0.1 c 0 0 0 0 0 0 s 0 0 0 0 c 0 0 0 -0.1 0 -0.1 z M 117.1 10.2 c 0 0 0 0 -0.1 0 s -0.1 0 -0.1 0 s 0 0 0.1 0 s 0.1 0 0.1 0 z M 134.7 38.9 l 0.1 -0.1 c 0 0 0 0 -0.1 -0.1 l 0 0 l 0 0 c 0 0 -0.1 0 -0.1 0.1 l 0 0 s 0 0.1 -0.2 0.1 s -0.4 0 -0.7 -0.3 c 0 0 0 0 0 0 c -0.1 0 -0.4 -0.4 -0.5 -0.4 c -0.2 0 -0.8 -0.2 -3.2 -2.6 l 0 -0.2 c -0.5 -0.2 -1 -0.9 -1.2 -1.2 c -0.1 -1.6 -1.2 -0.4 -1.2 -2.4 c 0 0 -0.1 0.1 -0.1 0.1 c 0 0 0 0 0 0 c 0 -0.1 -1 -0.8 -1 -1.7 c -0.2 -1.8 -0.4 -1.1 -0.4 -2.3 l -0.1 -0.1 c 0 -0.4 -0.1 -1.2 -0.3 -1.6 l 0 -2.9 l 0.1 -1.6 c 0 -0.5 0.4 -0.8 0.4 -2.4 l 0 0 c 0 0 0.4 -1.4 0.6 -1.7 l 0 0 c 0 0 0.8 -1.1 0.8 -1.4 c 0 -0.3 1 -0.9 1 -1.6 c 0.4 -0.4 0 -0.2 1.7 -1.8 c 0.4 0 0.3 -0.7 0.7 -0.7 l 0 -0.1 c 0.1 0 0.4 -0.2 0.8 -0.7 c 1.3 -0.8 -0.8 0.1 3.4 -1.9 c 0 0 0 0 0.1 0 c 0.4 0 1.4 -0.6 2 -0.6 c 0.9 0 3.6 -0.2 4 -0.2 c 1.4 0 1.8 0.5 2.2 0.5 c 1.5 0.1 1.9 1.2 2.4 1.2 c 0 0 0 0 0.2 0 c 0.2 0 0.5 0.2 1.5 1.1 c 0 0.3 0.5 0.3 0.6 0.5 l -0.1 0.1 c 0.2 0.1 1 0.6 1.3 1.3 c 0 0.1 0.7 0.4 0.7 0.8 c 0 0 0 0 0 0 c 0 0.1 1 0.8 1 1.2 c 0 0 -0.1 0 -0.1 0 c 0 0.1 0.8 0.6 0.8 1.2 c 0.1 1.1 1 1.4 1 2.3 c 0 0 0 0.1 0 0.1 c 0 0.3 0.7 0.9 0.7 2.2 c 0 1.6 0.3 2.7 0.3 3 c 0 0.7 -0.4 1.9 -0.4 3.4 c -0.3 1.8 -1.8 5.2 -2.2 5.4 c -0.1 0 -0.5 1 -0.8 1.2 c 0 0 -1.4 2.1 -2.3 2.4 c -0.6 0.4 -0.4 0.5 -2.4 2 c -0.1 0.1 -0.8 0 -1.2 0.4 c -3.4 1.2 -3.4 0.9 -3.6 1.2 l -2.8 0 c -0.1 0 -0.5 -0.2 -0.7 -0.2 c -0.1 0 -1 -0.5 -1.6 -0.5 c -0.8 0 -0.6 -0.5 -1 -0.5 z M 139.7 39.8 c 0 0 0 0 0 0.1 l 0 0 c 0 0 0 0 0 0 c 0 0 0 -0.1 0 -0.1 z M 140.8 39.8 c 0 0 0 0 0 0 c 0 0 0 0 0.1 0.1 l 0.1 -0.1 l -0.2 0 z M 141.1 39.7 c 0 0 -0.1 0 -0.1 0.1 s 0 0.1 0.1 0.1 l 0 -0.2 z M 136.9 39.6 c 0 0 0 0 0 0 c 0 0 0 0 0 0 s 0 0.1 0 0.1 c 0 0 0 0 0 -0.1 z M 136.8 39.4 c 0 0 -0.1 0 -0.1 0 c 0 0 0 0.1 0.1 0.1 l 0 -0.1 z M 139.7 39.4 l 0 0 l 0.1 0 s 0 0 0 0 z M 140.8 39.4 c 0 0 0 0 0 0.1 l 0.1 0 c 0 0 0 -0.1 0 -0.1 z M 138.2 39.3 c 0 0 -0.1 0 -0.1 0.1 c 0 0 0 0 0.1 0 l 0 -0.1 z M 140.9 39.3 c 0 0 -0.1 0 -0.1 0.1 c 0 0 0 0 0.1 0 s 0 0 0 0 c 0 0 0 -0.1 0 -0.1 z M 142.4 39 c 0 0 -0.1 0 -0.1 0.1 c 0 0 0 0 0.1 0 s 0 0 0 0 c 0 0 0 -0.1 0 -0.1 z M 132.5 32.7 c 0.1 0.4 0.3 0.6 0.3 1.1 c 0 0.6 0.6 1.1 0.6 1.9 c 0.5 0.8 -0.4 -0.1 1.6 1.9 c 0 0 0 0 0 0 c 0.1 0 0 0.5 0.9 0.5 c 0 0 1 0.7 2.4 0.7 l 1.6 0 c 1.8 0 3.2 -0.1 4.5 -1.4 c 0 0 1 -0.8 1.1 -1.2 c 0 0 0 0.1 0 0.1 c 0.2 0 0.9 -1.9 0.9 -2.6 c 0 -3.6 0.6 -5.7 0.6 -6.2 c 0 -0.1 -0.1 -0.5 -0.1 -0.9 c 0 -1.2 0.1 -1.7 0.1 -2.2 c 0 -0.1 -0.2 -1.3 -0.2 -1.4 c 0 0 0 0 0 0 c 0 -0.1 0.2 -0.5 0.2 -1.6 c 0 -0.1 -0.2 -0.4 -0.2 -1.3 c 0 -3.4 -0.6 -4.4 -0.7 -5.6 l 0 0 c -0.1 0 0.1 -0.8 -0.4 -1.3 c -1.2 -1.2 -1.1 -1.6 -1.3 -1.6 c -0.1 0 -0.6 -0.5 -0.6 -0.5 c 0 0 0 0.1 0 0.1 c -0.2 0 -1.1 -1 -2.1 -1 c -0.9 0 -1.6 -0.2 -2.3 -0.2 c -1.5 0 -2.8 1 -3.7 1 c -0.7 0.2 -1.2 0.7 -1.8 1.8 c 0 0.1 -0.9 0.7 -0.9 1.9 c 0 0 0 0 0 0.1 c 0 0.2 -0.4 0.4 -0.4 2 c -0.1 2.3 -0.4 -0.8 -0.4 5.4 l 0 3.8 c 0 1.3 0.1 2 0.1 4 l 0.1 0.1 c 0 0.6 0.1 1.6 0.2 1.6 l 0 1.2 z M 145.2 38.4 l 0 0 l 0.1 0 z M 132.8 37.7 c 0 0 -0.1 0 -0.1 0 c 0 0 0 0 0.1 0 c 0 0 0 0 0 0 z M 132.7 37.6 c 0 0 -0.1 0 -0.1 0.1 s 0 0 0.1 0 s 0 0 0 0 s 0 -0.1 0 -0.1 z M 133 36.5 l 0 0.1 l 0.1 0 l 0 -0.1 l -0.1 0 z M 129.6 34.9 c 0 0 0 0.1 0.1 0.1 c 0 -0.1 -0.1 -0.1 -0.1 -0.1 z M 128 32.7 c 0 0 -0.1 0 -0.1 0.1 s 0 0.1 0.1 0.1 s 0 0 0 -0.1 s 0 -0.1 0 -0.1 z M 125.9 25.1 c 0 0 0 0.1 0.1 0.1 l 0 0 z M 149.4 14.3 l 0 0 c 0 0 0 0 0 0 s 0 0 0 0 l 0 0 z M 147.6 12.2 c 0 0 0 0 0 0.1 s 0 0.1 0 0.1 c 0 0 0 0 0 -0.1 s 0 -0.1 0 -0.1 z M 133 11.2 c -0.1 0 -0.2 0 -0.2 0.1 l 0.2 0 l 0 -0.1 z M 134.6 10.3 l 0 0 c 0 0 0 0.1 0 0.1 l 0 -0.1 z M 142.2 9.7 c -0.2 0 -0.4 0 -0.5 0.1 l 0 0 c 0.1 0 0.5 0 0.5 -0.1 l 0 0 z M 138.3 9.5 l 0 0 c 0 0 0.1 0.1 0.2 0.1 l 0 -0.3 c -0.2 0 -0.2 0.1 -0.2 0.2 z M 142.8 9.6 c 0 0 -0.1 0 -0.1 0 c 0 0 0 0.1 0.1 0.1 c 0 0 0 0 0 -0.1 z M 136.9 9.6 c 0 0 -0.1 0 -0.1 0 s -0.1 0 -0.1 0 s 0 0 0.1 0 c 0 0 0.1 0 0.1 0 z M 137.2 9.5 l 0 0.1 l 0.1 0 l 0 -0.1 l -0.1 0 z M 139.2 9.2 c 0 0 -0.3 0.2 -0.4 0.2 l 0 0 c 0.2 0 0.4 -0.2 0.4 -0.3 z M 141 9.2 l 0 0.1 l 0.1 0 l 0 -0.1 l -0.1 0 z M 167.6 40.1 l -4.1 -0.1 l -0.1 0 l 0.2 -0.2 c 0 0 -0.1 -0.1 -0.1 -0.1 c -0.1 0 -0.2 0.3 -0.3 0.4 l -2.4 0 c -0.2 -0.3 -0.4 -0.4 -0.4 -0.6 c 0 -0.1 0.1 -0.3 0.1 -0.4 c 0.2 -0.2 -0.2 -0.5 2.3 -0.5 c 0.2 0 0.5 0.1 0.8 0.1 c 0.4 0 0.8 -0.2 0.9 -0.8 c 0 -1.4 0 -2.6 0 -4 c 0 -0.7 0 -1.7 0 -2.5 c 0 -1.7 0 -3.3 -0.1 -4.6 c 0 -0.8 0.1 -3 0.1 -7 c 0 -0.2 0 -0.5 0 -0.6 c 0 -0.4 0 -0.4 0 -0.9 c 0 -0.4 -0.1 -0.8 -0.1 -1.1 c 0 -0.3 0 -0.5 0.1 -0.6 c 0 0 0 -0.2 0 -0.4 s 0 -0.3 0 -0.4 l 0 -4.4 l -0.2 -0.2 l -2.1 0 c -0.1 0.1 -0.4 0.1 -0.6 0.1 c -0.2 0 -0.4 0 -0.4 0 c 0 0 -0.6 0.1 -0.6 -0.7 c 0.2 -0.6 0.2 -0.6 0.6 -0.8 c 4.9 0 4.5 0.1 5.8 0.1 c 0.5 0 3.8 -0.1 4.8 -0.1 l 0.2 0.1 l 2.4 0 c 0.4 0.1 0.4 0.4 0.5 0.6 c 0 0.4 0 0.6 -0.5 0.8 c -0.5 0 -1.5 -0.1 -2.5 -0.1 c -1.6 0 -1.2 0.3 -1.4 0.9 l 0 11 c 0 0.1 -0.1 0.8 -0.1 1 c 0 0.1 0.1 0.2 0.1 0.3 l 0 2.3 c 0 0 0.1 0.3 0.1 0.4 l -0.1 0.2 l 0 6.8 c 0 0.1 0.1 0.3 0.1 0.3 s 0 0.1 -0.1 0.3 l 0 2.7 l -0.1 0.2 c 0 1.1 0.1 1.2 0.6 1.4 c 0.6 0 1.8 0.1 3 0.1 c 1.5 0 2.9 -0.1 3.2 -0.6 c -0.1 0 0.9 0 1.2 -0.4 c 0.2 0 0.5 -0.7 1.1 -0.7 c 1 -1.2 -0.2 0.2 1.6 -1.6 c 0 0 -0.1 0 -0.1 0 c 0 -0.1 0.8 -0.6 0.8 -1 c -0.1 0 1.1 -2 1.1 -2.4 c 0 -1.2 0.7 -1.9 1 -2.1 c 0.7 0 1.2 -0.6 1.2 1.6 c 0 1.5 -0.2 3.5 -0.4 3.5 c 0 0.1 0 0.2 0.1 0.3 c 0 0 -0.2 1.1 -0.2 3.5 c 0 1 -0.3 0.6 -0.6 1.2 c -2.2 0 -2.2 -0.1 -3.2 -0.1 c -0.5 0 -1.2 0.1 -1.4 0.1 l -2.7 -0.1 c -0.6 0 -1.2 0 -1.6 0 c 0 0 -0.7 0.1 -1.2 0.1 c -0.2 0 -0.3 0 -0.4 -0.2 c 0 0 -0.8 0.2 -0.8 0.2 c 0 0 0 -0.1 -0.4 -0.1 c -0.2 0 -0.8 0.1 -1.3 0.1 c -0.3 0 -0.3 -0.1 -0.6 -0.1 c -0.1 0 -1.6 0.2 -2.1 0.2 c -0.1 0 -0.7 -0.1 -0.8 -0.1 z M 161.2 39.4 c -0.1 0 -0.1 0.5 -0.1 0.6 l 0.1 0 l 0 -0.6 z M 162.5 39.4 c 0 0.1 0.2 0.4 0.3 0.6 c 0.1 -0.1 0.2 -0.4 0.2 -0.4 c 0 0 -0.2 -0.2 -0.4 -0.2 l -0.1 0 z M 162.4 39.8 c 0 0 0 0 0 0.1 s 0 0.1 0 0.1 s 0 0 0 -0.1 s 0 -0.1 0 -0.1 z M 173.6 39.7 l 0 0.1 l 0.1 -0.1 l -0.1 0 z M 174.4 39.6 c 0 0.1 0 0.1 0.1 0.2 c 0.2 0 0.2 -0.1 0.2 -0.3 c -0.1 0 -0.2 0 -0.3 0.1 z M 174.9 39.6 l 0 0.2 c 0.2 0 0.2 -0.1 0.2 -0.2 l -0.2 0 z M 175.5 39.6 l 0 0.1 l 0.1 0 l 0 -0.1 l -0.1 0 z M 172.6 39.6 l 0 0.1 l 0.1 0 z M 160.8 39.4 c -0.1 0 -0.1 0 -0.1 0 c 0 0.1 0.2 0 0.2 0.2 z M 164.5 39.4 c -0.1 0 -0.2 0 -0.2 0.1 c 0.2 0 0.2 0 0.2 -0.1 z M 178.3 39.4 c 0 0 0 0 0 0 l 0 0.1 c 0 0 0 0 0 -0.1 z M 177.2 39.1 c -0.1 0 -0.1 0.1 -0.2 0.2 c 0.2 0 0.2 -0.1 0.2 -0.2 z M 178.9 39 c 0 0 0 0.2 0.2 0.2 c 0 -0.2 0 -0.2 -0.1 -0.3 z M 160.8 39 l 0.2 0.1 l 0.1 -0.1 l -0.1 -0.1 c -0.2 0 -0.2 0 -0.2 0.1 z M 184.5 34.7 c 0 0 -0.1 0 -0.1 0 c 0 0 0 0 0.1 0 s 0 0 0 0 c 0 0 0 0 0 0 z M 169.2 32.6 l 0 0.2 l 0.3 0 c 0 -0.1 -0.1 -0.2 -0.2 -0.2 l -0.1 0 z M 184.5 32.7 c 0 0 -0.1 0 -0.1 0.1 s 0 0.1 0.1 0.1 s 0 0 0 -0.1 s 0 -0.1 0 -0.1 z M 184.6 30.6 c 0 0.2 0 0.4 0 0.6 l 0.2 0 l 0 -0.6 l -0.2 0 z M 184 30.5 c 0 0 0 0.2 0.1 0.2 c 0.1 0 0.2 0 0.2 -0.1 c 0 -0.1 0 -0.2 -0.2 -0.2 c 0 0 -0.1 0 -0.1 0 z M 164.7 18.3 l 0 0.1 l 0.1 0 l 0 -0.1 l -0.1 0 z M 164.7 14.2 c 0 0 0 0 0 0 c 0 0 0 0 0 0 s 0 0 0 0 c 0 0 0 0 0 0 z M 161.9 10.8 l 0 0.1 l 0.2 0 c -0.1 -0.1 -0.2 0 -0.2 -0.1 z M 160.9 10.3 c 0 0 0 0.3 0 0.4 l 0 -0.2 l 0.3 0 c 0 -0.2 -0.2 -0.2 -0.3 -0.2 z M 161.7 10.4 c 0.1 0.2 0.1 0.2 0.2 0.2 c 0 -0.2 -0.1 -0.2 -0.2 -0.2 z M 167.7 10.4 l 0 0.1 l 0.3 0 l 0 -0.1 l -0.3 0 z M 171.7 10.4 c 0 0.1 0.1 0.1 0.2 0.1 s 0.1 0 0.1 0 z M 173.6 10.2 c 0 0.2 0.8 0.2 0.8 0.2 c -0.1 -0.3 -0.3 -0.2 -0.5 -0.3 c -0.1 0 -0.2 0.1 -0.3 0.1 z M 163.4 10.3 c 0 0.1 0 0 0.2 0 l 0 -0.1 s -0.2 0 -0.2 0.1 z M 166.8 10.3 c 0 0 -0.1 0 -0.1 0 s 0 0.1 0.1 0.1 s 0 0 0 -0.1 s 0 0 0 0 z M 168.8 10.3 c 0 0 0 0 0 0 s 0 0.1 0 0.1 s 0 0 0 -0.1 s 0 0 0 0 z M 172.3 10.4 c 0 0 0 0 -0.1 0 s -0.1 0 -0.1 0 s 0 0.1 0.1 0.1 s 0.1 0 0.1 -0.1 z M 192.2 40.2 c -0.4 0 -0.4 0 -0.7 0 c -0.1 0 -0.4 -0.3 -0.6 -0.4 c 0 0 0.1 -0.6 0.1 -0.7 c 1.4 -0.1 2.5 -0.2 3.6 -0.3 c 0.1 0 0 -0.8 0.4 -0.8 l 0 -0.6 c 0 0 0.1 0 0.1 0 c 0.2 0 0.2 -1.1 0.5 -1.2 c 0 -0.1 0.2 -1.4 0.6 -1.8 l 0.2 -0.8 s 1.4 -4.6 1.9 -4.6 c 0 0 0.1 0 0.2 0 c 0.2 0 0.2 -0.1 0.2 -0.2 c 0 -0.4 -0.3 -0.2 -0.3 -0.5 c 0 -0.7 0.7 -2.1 0.8 -2.2 c 0 -1.6 0.6 -1.2 0.6 -2.3 l 0 0 c 0 0 0.4 -1 0.5 -1.1 c 0 0.1 0 0.1 0 0.1 s 0 0 0 0 c 0 -0.2 0.8 -1.9 0.8 -2.3 c 0.2 0 0.2 0 0.2 -0.1 s 0 -0.2 0 -0.3 c 0 -0.2 0.1 -0.5 0.4 -0.8 l 0 0 c 0.1 0 0 -0.9 0.4 -0.9 l 0.2 -0.8 l 0.2 -0.2 l 0 -0.6 l 0.3 -0.2 l 0 -0.7 s 0.2 -0.1 0.2 -0.2 c 0 0 -0.1 -0.1 -0.1 -0.1 c 0 -0.5 1 -2 1 -3.1 l 0.2 -0.2 l 0 -0.6 c 0 0 0 0 0 0 c 0.6 0 -0.2 -2.3 1.9 -2.3 c 0.2 0 0.9 0.4 0.9 1 c 0.2 0.2 -0.2 0.6 0.6 1.9 c 0 0 1 2.6 1 3.3 c 0.4 0 0.1 0.8 1 2.7 c 0.2 1.1 0.7 1 0.7 1.5 l 0 0 s 0.2 1.3 0.4 1.3 l 0 0 c 0 0.2 1 1.2 1 2.4 c 0.2 1.2 0.6 0.7 0.6 1.7 l 0 0 c 0 0.1 0.6 0.9 0.6 1.4 c 0 0 -0.1 0 -0.1 0 c 0 0.2 0.4 0.7 0.4 0.9 c 0 0 0 0 0 0.1 c 0 0.1 0.4 0.4 0.4 1.1 c 0.2 1.4 0.8 1.5 0.8 2.4 c 0 0.1 -0.1 0.1 -0.1 0.2 c 0 0.2 0.6 0.2 0.6 1.1 c 0 2.3 1.6 2.8 1.6 4.4 c 0.2 1.3 0.9 1.7 1 1.8 l 2.6 0 c 0.2 0 0.4 0.1 0.5 0.2 l 0 0.7 c -0.2 0.1 -0.3 0.2 -0.9 0.2 c -0.1 0 -2 -0.1 -2.8 -0.1 c -0.4 0 -0.7 0.1 -1 0.1 c 0 0 -0.7 -0.1 -0.8 -0.1 c -2.2 0 -3.5 0.1 -4.4 0.1 c 0 0 0 -0.1 -0.7 -0.1 c -0.3 0 -0.4 0 -0.6 0.1 c -0.2 0 -0.4 -0.1 -0.4 -0.2 c -0.1 0 -0.2 0 -0.2 0 l 0.1 0.1 l -0.1 0.1 c -1.3 0 -1.4 0 -1.7 -0.2 l 0.1 -0.7 c 0 -0.1 0.3 -0.2 0.4 -0.2 l 3 0 c 0 0 0.3 -0.2 0.3 -0.4 c 0 -0.1 -0.6 -0.9 -0.6 -1.4 c 0.1 0 0.1 0 0.1 -0.1 c 0 -0.2 -0.7 -0.7 -0.7 -1.8 c 0 0 0 0 0 0 c 0 -0.1 -0.4 -0.4 -0.4 -0.7 c 0 -1.4 -0.6 -1.4 -0.6 -2.5 l 0 0 c -0.1 0 -0.4 -1 -0.8 -1 c -2.7 0 -5.5 0.1 -8.8 0.1 c 0 0.2 -0.3 0.2 -0.3 0.7 c -0.6 1.3 -0.7 1.1 -0.7 1.8 c -0.5 0.3 0 0.6 -0.5 1.2 c -0.3 2.2 -0.8 1 -0.8 2.4 l 0 0 c -0.1 0 -0.4 1 -0.5 1 c 0 0.6 0.2 0.6 0.4 0.8 l 3.2 0 c 0.2 0 0.6 0 0.6 0.5 s -0.1 0.7 -0.8 0.7 c -0.1 0 -0.3 -0.1 -0.5 -0.1 c -0.4 0 -0.6 0.1 -0.8 0.1 c -0.1 0 -0.3 -0.1 -0.3 -0.1 l -2.8 0 c -0.1 0.1 -0.2 0.1 -0.2 0.1 c -0.1 0 -0.3 0 -0.5 -0.2 c 0 0 0.1 -0.1 0.1 -0.2 l -0.1 0 c -0.1 0 -0.1 0 -0.1 0.1 l 0 0.1 c 0 0.2 -0.1 0.2 -0.3 0.2 c 0 -0.5 0 -0.4 0.1 -0.6 c 0 -0.2 0 -0.4 -0.1 -0.4 c 0 0.3 -0.1 0.5 -0.4 0.6 c 0 0.1 0.1 0.2 0.2 0.2 c -0.2 0 -0.6 0.2 -0.7 0.3 c -0.7 0 -0.6 -0.2 -1.1 -0.2 z M 191.9 39.8 l 0 0.1 l 0.2 0 c -0.1 -0.1 -0.2 -0.1 -0.2 -0.1 z M 192.6 39.9 c 0 0 0 0 -0.1 0 s -0.1 0 -0.1 0 s 0 0.1 0.1 0.1 s 0.1 0 0.1 -0.1 z M 192.8 39.8 c 0 0 -0.1 0 -0.1 0.1 s 0 0.1 0.1 0.1 s 0 0 0 -0.1 s 0 -0.1 0 -0.1 z M 193.7 39.8 c -0.2 0 -0.6 0.1 -0.6 0.2 c 0.7 0 0.5 0 0.6 -0.2 z M 195 39.8 c 0 0 0.3 0.1 0.4 0.1 l 0.1 -0.1 c -0.2 0 -0.4 0 -0.4 0 z M 198 39.8 c 0.5 0 1.3 0.1 1.5 0.1 c -0.4 0 -0.4 -0.4 -0.5 -0.6 c 0 0 -0.3 0.1 -0.3 0.3 c -0.1 0 0 -0.2 -0.4 -0.2 c 0 0.3 -0.2 0.4 -0.4 0.5 z M 199.8 39.8 l 0.1 0.1 c 0 0 0.3 -0.1 0.4 -0.1 l -0.4 0 z M 194.3 39.8 c 0 0 -0.1 0 -0.1 0.1 c 0 0 0 0 0.1 0 s 0 0 0 0 c 0 0 0 -0.1 0 -0.1 z M 197.4 39.8 c 0 0 -0.1 0 -0.1 0 c -0.1 0 -0.1 0 -0.1 0 c 0 0 0 0.1 0.1 0.1 c 0 0 0.1 0 0.1 -0.1 z M 207.3 39.8 c 0 0 0.2 0.1 0.2 0.1 s 0.2 0 0.3 -0.1 l 0 -0.5 s -0.1 0 -0.1 0 c -0.4 0 -0.4 0.1 -0.4 0.2 l 0 0.3 z M 218.1 39.8 c 0.1 0 0.2 0 0.4 0 c 0 0 0.2 0 0.4 0 l -0.7 0 z M 220 39.8 l 0 0 l 0 0 l 0 0 z M 208.4 39.8 l -0.1 0 l 0.1 0 z M 211.4 39.8 c 0 0 -0.1 0 -0.1 0 s 0 0 0.1 0 s 0 0 0 0 s 0 0 0 0 z M 216.9 39.8 c 0 0 0.1 0 0.2 0 l 0.8 0 c 0 0 -0.1 -0.1 -0.2 -0.1 c -0.1 0.1 -0.2 0.1 -0.2 0.1 c -0.4 0 -0.3 -0.3 -0.4 -0.3 z M 191.2 39.5 c 0 0.2 0 0.2 0.1 0.3 l 0.5 0 l 0 -0.7 c -0.6 0.3 -0.6 0.2 -0.6 0.4 z M 199.7 39.6 l 0 0.2 c 0.1 0 0.1 -0.1 0.1 -0.1 c 0 -0.2 -0.2 -0.2 -0.2 -0.4 c -0.2 0 -0.2 0.1 -0.2 0.1 c 0 0.1 0.1 0.2 0.3 0.2 z M 219.2 39.7 c 0 0 0 0 0 0.1 s 0 0 0 0 s 0 0 0 0 s 0 -0.1 0 -0.1 z M 192.3 39.2 c 0 0.3 0 0.4 -0.1 0.4 c 0.2 0 0.4 0 0.4 -0.2 s 0 -0.2 -0.3 -0.2 z M 196.6 39.6 l 0 0.1 l 0.1 0 z M 197.3 39.4 l 0.1 0 l 0 -0.1 z M 199.9 39.2 c 0 0 0 0.1 0 0.1 c 0 0 0.2 0 0.2 -0.1 c 0 -0.1 -0.1 -0.1 -0.2 -0.1 c 0 0 0 0.1 0 0.1 z M 218.2 39.2 c 0 0 0.1 0 0.1 0 c 0 -0.2 0 -0.2 -0.1 -0.2 c 0 0 0 0.1 0 0.2 z M 219.9 39 c -0.2 0 -0.2 0.1 -0.2 0.3 l 0.3 -0.2 c 0 0 -0.1 -0.1 -0.2 -0.1 z M 216.9 39.1 c 0 0 -0.1 0 -0.1 0 c 0 0 0 0 0.1 0 s 0 0 0 0 c 0 0 0 0 0 0 z M 194.9 39 l 0 0.1 l 0.1 -0.1 l -0.1 0 z M 195 38.4 c 0 0 0 0.6 0.4 0.6 c -0.1 0 -0.2 -0.4 -0.2 -0.6 l 0.1 -0.2 l -0.1 -0.1 c -0.2 0 -0.2 0.2 -0.2 0.3 z M 196.5 36.5 c -0.1 0.1 -0.3 0.3 -0.3 0.6 c 0 0 0.1 0 0.1 0 c 0.2 0 0.2 -0.2 0.2 -0.4 c 0 0 0 -0.4 0 -0.3 z M 196.3 35.4 c 0 0 0 0 0 0 c 0 0 0 0 0 0 s 0 0 0 0 c 0 0 0 0 0 0 z M 197.4 32.6 c 0 0 -0.1 0 -0.1 0 s 0 0 0.1 0 l 0 0 z M 208.8 32 c 0 0 0 0 0 0.1 s 0 0.1 0 0.1 s 0 0 0 -0.1 s 0 -0.1 0 -0.1 z M 197.8 31.7 c 0 0 0 0 0 0.1 s 0 0.1 0 0.1 s 0 0 0 -0.1 s 0 -0.1 0 -0.1 z M 197.8 30.8 c 0 0 0 0 0 0 c 0 0 0 0 0 0 s 0 0 0 0 c 0 0 0 0 0 0 z M 199.6 29.2 c 0.1 0.5 0.2 0.5 0.4 0.7 c 0.5 0 1.8 -0.1 5.4 -0.1 c 0.3 0 0.5 0.1 1.3 0.1 c 0.4 0 0.8 -0.1 0.8 -0.6 c 0 -0.2 -0.5 -1 -0.5 -1.4 l 0 0 c 0 -0.1 -0.4 -0.4 -0.4 -0.9 c 0 -1.5 -0.8 -1.3 -0.8 -2.2 c 0 0 0 0.1 0 0.1 c 0 0 -0.8 -1.3 -0.8 -2.1 c 0 -0.5 -0.7 -1.3 -0.7 -2.2 l 0 0 c 0 -0.1 -0.4 -0.5 -0.4 -1 c -0.4 -0.8 -0.4 -0.8 -0.7 -0.8 c -1.2 2.8 -1.1 2.8 -1.4 3.5 c 0 -0.1 0 1.3 -0.6 1.5 l 0 -0.1 c 0 0 -0.4 2.3 -0.8 2.6 c 0 0.5 -0.9 1.2 -0.9 2.7 z M 198.8 28.1 c 0 0 -0.1 0 -0.1 0.1 s 0 0.1 0.1 0.1 s 0 0 0 -0.1 s 0 -0.1 0 -0.1 z M 199.8 25.4 c 0 0 -0.1 0 -0.1 0.1 c 0 0 0 0 0.1 0 l 0 -0.1 z M 201.4 23.1 l 0 0 l 0 0 z M 201.3 22.4 c 0 0 -0.1 0 -0.1 0.1 l 0.1 0 l 0 0 c 0 0 0 -0.1 0 -0.1 z M 201.4 21.4 c 0 0 -0.1 0 -0.1 0 c 0 0 0 0.1 0.1 0.1 c 0 0 0 0 0 -0.1 z M 202.5 18.7 c 0 0 0 0 0 0 c 0 0 0 0 0 0 s 0 0.1 0 0.1 c 0 0 0 0 0 -0.1 z M 202.6 18.6 l 0 0 c 0 0 0 0 0 0 s 0 0 0 0 l 0 0 z M 207 15.8 c 0 0 0 0 0 0.1 s 0 0.1 0 0.1 s 0 0 0 -0.1 s 0 -0.1 0 -0.1 z M 206.2 10.2 c 0 0 0 0 0 0.1 l 0.1 0 c 0 0 0 -0.1 0 -0.1 z M 205.2 10.1 c 0 0 0 0 0 0.1 s 0 0.1 0 0.1 s 0 0 0 -0.1 s 0 -0.1 0 -0.1 z M 205.5 10.1 l 0.2 0.1 c 0.3 0 0.2 0 0.3 -0.1 l -0.1 -0.2 c -0.2 0 -0.2 0.2 -0.4 0.2 z M 231.1 38.8 c -0.4 0 -0.6 0.1 -0.8 0.1 c -0.4 0 -0.3 0 -0.3 0 l -0.1 0 c 0 0.1 0 0.1 0.1 0.2 c 0 0 -0.1 0.1 -0.2 0.2 l 0 0 c 0 0 -1.3 1 -1.5 1 c -0.9 0 -0.9 -1.1 -0.9 -1.2 c 0 -0.1 0 -0.1 0 -0.2 c 0 -4.5 -0.2 -3.8 -0.2 -6.5 c 0 0 0 0 0 -0.1 c 0 -0.1 -0.1 -0.3 -0.1 -0.5 c 0 -0.4 0.2 -0.6 1.2 -0.6 c 0.1 0 0.3 0.1 0.6 0.8 c 0 0.2 0.7 0.8 0.8 1.2 c 0 0 -0.1 0.1 -0.1 0.1 c 0 0.2 0.6 0.4 0.6 0.6 c 0 0 0 0.1 0 0.1 c 0 0.2 0.4 0.4 0.4 0.6 c 0.5 0.9 0.5 0.8 1.2 1.5 c 0.2 0 1.7 2.6 2.8 2.6 c 1.4 0.1 1.7 0.6 3.2 0.6 c 0.8 0 0.7 0 1 -0.2 c -0.1 0.1 0 0.1 -0.1 0.1 c 0 0 0.3 -0.4 1.6 -0.4 c 0.6 0 1.8 -1.1 2 -1.3 c 0.1 -0.1 0.5 -0.2 0.5 -0.3 c 0 -0.2 0.8 -1.4 1 -1.5 c 0 -0.1 0 -0.2 0 -0.2 c 0 -0.6 0.6 0.3 0.6 -3.4 c 0 -0.1 -0.2 -1.4 -0.4 -1.6 c -0.1 0 -0.1 -0.9 -1.1 -1.6 c 0 0 0 -0.2 0 -0.3 c -1.6 -0.1 -0.8 -0.9 -1.8 -0.9 c -2 0 -0.4 -0.6 -2.5 -0.6 c -0.2 -0.2 -2 -0.2 -2.4 -0.4 c -0.1 0 -0.4 0.1 -0.4 0.1 c -0.5 0 -0.1 -0.4 -1.2 -0.4 c -3.6 -0.2 -1.7 -0.9 -2.9 -0.9 l 0 -0.1 c 0.1 0 0.3 0 0.4 0.1 c 0 0 0.2 -0.1 0.2 -0.1 c 0 0 -0.1 -0.1 -0.1 -0.1 l -1.2 0 c -0.4 -0.4 -0.4 -0.6 -0.7 -0.7 c 0 0 -0.4 0 -1.1 -0.9 c 0 -0.3 -0.9 -1.3 -1.1 -1.5 c -0.4 -1.9 -0.8 -3 -0.8 -4.4 c 0.1 -0.4 0 -1 0.2 -1.3 l 0 0 c 0 0 0.2 -1.4 0.3 -1.3 c 0 0 -0.1 0 -0.1 -0.1 c 0 -0.3 0.8 -1.2 0.8 -1.5 c 0 0 0 -0.1 0 -0.1 c 0 -0.3 0.6 -0.6 0.6 -0.7 s 0.5 -1 0.8 -1.1 c 0 0 0 0.1 0 0.1 c 0 0 2 -1.3 2 -1.4 c 2.4 -0.4 0.3 -1.1 3 -1.1 l 3.9 0 c 0.1 0 0.9 0 1.3 0.3 c 1.6 0.1 1.4 1 2.1 1 c 1.3 0 1 -0.1 1.4 -0.5 c -0.2 -0.2 1.1 0 1.2 -0.6 l 0.5 0 c 0.1 0 0.4 0.3 0.4 0.4 c 0.1 5 0.4 4.8 0.4 7.4 c 0 0.2 -0.4 0.3 -0.5 0.6 l -0.6 0 l 0 -0.2 c -0.1 0 -1 -0.6 -1 -1 l 0 0 c 0 0 -0.3 -1 -0.8 -1.2 l 0 0 c 0 -0.1 -0.5 -0.5 -0.5 -0.8 c -0.6 -0.9 -0.5 -0.8 -1 -1.3 l 0 0 c 0 0 -1 -0.6 -1 -0.9 c 0 -0.6 -1.5 -1.3 -1.8 -1.6 c 0.1 -0.2 -1 -0.6 -2.2 -0.6 c 0 0 -0.1 0 -0.1 0 c -0.4 0 -0.2 -0.7 -0.4 -0.7 c -0.1 0.1 -0.1 0.1 -0.2 0.2 c 0 0 -0.2 0 -0.3 -0.1 c -0.2 0.9 -0.6 0.4 -0.8 0.6 c -0.2 -0.1 -0.1 -0.2 -0.2 -0.3 c -0.8 0.4 -0.6 0.4 -2.4 1.3 c -1.2 2.4 -0.6 -0.6 -1.9 3 l 0 1.8 l 0 0 c 0 0 0.2 1.6 0.6 1.8 c 0.1 0.1 0.6 0.5 0.8 0.8 c 0.3 0 0.6 1 1.8 1 c 0.5 0.5 2.4 0.4 4.3 0.9 c 0.6 0.2 3.5 0.2 4.2 1 l 0 0 c 0 0.1 1 0.2 1.1 0.3 c 0 -0.1 1.9 1.1 1.9 1.4 c 0 0 0 0 0 0 c 0.7 0 1.4 1.5 1.6 1.7 c 0.2 1.4 0.8 1 0.8 2.1 c 0.5 1.5 0.4 1.9 0.4 3.8 c -0.1 0.1 -0.2 1.5 -0.4 1.6 c 0 2 -1 1.9 -1 2.8 l -0.5 0.5 c 0 0.1 0 0.2 0 0.2 c -0.8 0.7 -0.5 0.8 -0.9 1 c -0.1 0 -0.3 0.6 -1 0.8 c -0.8 1.2 -1.1 0.2 -1.9 1.4 c -3.6 0 0.1 0.9 -3.9 0.9 c -4.6 0 -3 -0.1 -4.4 -0.5 c 0 0 0 0 -0.1 0 c -0.2 0 -0.6 -0.3 -0.9 -0.3 c 0 0 -0.6 -0.1 -0.6 -0.2 c 0 0 0 0 0 0 c 0 0 -0.6 -0.8 -1 -0.8 c -0.1 0 -0.2 0 -0.2 0.1 z M 238.7 40.3 c 0 0 0 0 0 0.1 c 0 0 0 0 0 0 s 0 0 0 0 c 0 0 0 -0.1 0 -0.1 z M 235.7 40.2 c 0 0 0 0 0 0 c 0 0 0 0 0 0 s 0 0 0 0 c 0 0 0 0 0 0 z M 239.5 40.2 c 0 0 -0.1 0 -0.1 0.1 s 0 0.1 0.1 0.1 s 0 0 0 -0.1 s 0 -0.1 0 -0.1 z M 238.6 40.1 c 0 0 -0.1 0 -0.1 0.1 s 0 0.1 0.1 0.1 s 0 0 0 -0.1 s 0 -0.1 0 -0.1 z M 239.5 40 c -0.1 0 -0.1 0 -0.1 0 l 0 0 l 0.1 0 l 0 -0.1 z M 236.6 40 c 0 0 0 0 0 0 c 0 0 0 0 0 0 s 0 0 0 0 c 0 0 0 0 0 0 z M 239.5 39.8 l 0 0.2 c 0.1 0 0.2 -0.1 0.2 -0.2 l -0.2 0 z M 240.6 39.6 c -0.4 0 -0.4 0.1 -0.4 0.2 c 0 0 0.1 0 0.2 -0.1 c 0 0 0.2 0 0.2 0.1 l 0.2 -0.1 s 0 -0.2 -0.2 -0.2 z M 235.8 39.7 l 0 0.1 l 0.2 0 l 0 -0.1 l -0.2 0 z M 237.8 39.7 c 0 0 0 0 0 0.1 c 0 0 0 0 0 0 s 0 0 0 0 c 0 0 0 -0.1 0 -0.1 z M 238.9 39.7 c 0 0 -0.1 0 -0.1 0.1 c 0 0 0 0 0.1 0 s 0 0 0 0 c 0 0 0 -0.1 0 -0.1 z M 235.3 39.4 c 0 0 -0.1 0 -0.1 0 l 0.1 0 l 0 0 c 0 0 0 0 0 0 z M 234 39.3 c 0 0 -0.1 0 -0.1 0 z M 233.9 39.2 c 0 0 -0.1 0 -0.1 0.1 s 0 0.1 0.1 0.1 s 0 0 0 -0.1 s 0 -0.1 0 -0.1 z M 234 39.1 c 0 0 0 0 0 0.1 c 0 0 0 0 0 0 s 0 0 0 0 c 0 0 0 -0.1 0 -0.1 z M 228.3 39 c 0 0 -0.1 0 -0.1 0.1 c 0 0 0 0 0.1 0 l 0 0 c 0 0 0 -0.1 0 -0.1 z M 233.9 39 c 0 0 -0.1 0 -0.1 0.1 c 0 0 0 0 0.1 0 s 0 0 0 0 c 0 0 0 -0.1 0 -0.1 z M 227.7 38.9 c 0 0 -0.1 0 -0.1 0 c 0 0 0 0.1 0.1 0.1 c 0 0 0 0 0 -0.1 z M 234.2 39 l -0.1 0 c 0 0 0 0.1 0 0.1 c 0 0 0 0 0 -0.1 z M 242.1 38.9 c 0 0 0 0 0 0 l 0.1 0 c 0 0 0 0 0 0 z M 227.7 38.2 l 0 -0.2 l 0 0.2 z M 243.9 38.2 c 0 0 -0.1 0 -0.1 0.1 l 0.1 0 c 0 0 0 -0.1 0 -0.1 z M 244.5 37.7 l 0 0.1 l 0 0 z M 244.3 37.6 c 0 0 -0.1 0 -0.1 0.1 c 0 0 0 0 0.1 0 s 0 0 0 0 c 0 0 0 -0.1 0 -0.1 z M 244.6 37.6 l 0.1 0 z M 244.8 37.4 l 0 0 l -0.1 0.1 c 0 0 0 -0.1 0.1 -0.1 z M 227.9 37.3 c 0 0 -0.1 0 -0.1 0 c 0 0 0.1 0 0.1 0 l 0 0 z M 227.7 36.9 l 0 0.2 l 0 0 c 0 0 0 -0.2 0 -0.2 z M 246.1 36 c 0 0 0 0 0 0 s 0 0 0 0 s 0 0 0 0 s 0 0 0 0 z M 244.8 32.8 l 0.1 0 l 0.1 0 l -0.2 0 z M 227.7 32.1 l -0.1 0 c 0 0 0 0.1 0 0.1 c 0 0 0 0 0 -0.1 z M 247.7 31.4 l 0 0 c 0 0 0 0 0 0 s 0 0.1 0 0.1 l 0 -0.1 z M 230.9 24.7 c 0 0 -0.1 0 -0.1 0.1 s 0 0.1 0.1 0.1 s 0 0 0 -0.1 s 0 -0.1 0 -0.1 z M 229.2 23 c 0 0 -0.1 0 -0.1 0.1 c 0 0 0 0 0.1 0 l 0 0 c 0 0 0 -0.1 0 -0.1 z M 242.1 22.6 c 0 0 0 0 0 0.1 c 0 0 0 0 0 0 s 0 0 0 0 c 0 0 0 -0.1 0 -0.1 z M 228.7 22.4 l 0 0.1 l 0.1 -0.1 l -0.1 0 z M 232.5 22 c 0 0 0 0 0 0 l 0.1 0 c 0 0 0 0 0 0 z M 236.5 21.5 c -0.1 0 -0.3 0.1 -0.3 0.1 s 0 0 0 0 c 0.1 0 0.2 -0.1 0.2 -0.2 z M 228 20.4 c 0 0 -0.1 0 -0.1 0.2 c 0 0 0 0.1 0 0.1 c 0 0 0.1 -0.1 0.1 -0.1 c 0 -0.1 0 -0.2 0 -0.2 z M 227.9 20 c 0 0 -0.1 0 -0.1 0.1 s 0 0.1 0.1 0.1 l 0 -0.2 z M 245 12.9 c 0 0 -0.1 0 -0.1 0.1 c 0 0 0 0 0.1 0 s 0 0 0 0 c 0 0 0 -0.1 0 -0.1 z M 245.5 12.9 c 0 0 0 0 0 0.1 c 0 0 0 0 0 0 s 0 0 0 0 c 0 0 0 -0.1 0 -0.1 z M 245.7 12.9 c 0 0 -0.1 0 -0.1 0.1 c 0 0 0 0 0.1 0 l 0 0 c 0 0 0 -0.1 0 -0.1 z M 236.7 12 l 0 -0.4 c 0 0 0.1 -0.1 0.2 -0.1 l 0.1 0.1 c 0 0.1 -0.2 0.3 -0.2 0.6 z M 245.5 11.9 c 0 0 0 0 0 0.1 c 0 0 0 0 0 0 s 0 0 0 0 c 0 0 0 -0.1 0 -0.1 z M 232.4 11.7 c -0.2 0 -0.2 0.2 -0.2 0.2 c 0 0 0.2 -0.1 0.2 -0.2 l 0 0 z M 231.5 11.5 c 0 0.1 0.1 0.1 0.2 0.1 c 0 -0.1 -0.2 -0.1 -0.2 -0.1 l 0 0 z M 245.4 11.6 c 0 0 0.1 0 0.1 0 c 0.2 0 0.2 -0.1 0.2 -0.2 z M 232.1 11.2 c -0.1 0 -0.1 0.1 -0.1 0.2 l 0.1 0 l 0 -0.2 z M 240 10.9 c -0.1 0.2 -0.1 0.4 -0.1 0.5 c 0.2 0 0.2 -0.2 0.2 -0.4 c 0 0 0 -0.1 -0.1 -0.1 z M 232.1 11 c 0 0 -0.1 0 -0.1 0 l 0.1 0 l 0 0 c 0 0 0 0 0 0 z M 245 11 c 0 0 0 0 -0.1 0 c 0 0 -0.1 0 -0.1 0 s 0 0.1 0.1 0.1 c 0.1 0 0.1 0 0.1 -0.1 z M 245.1 10.8 c 0 0 -0.1 0 -0.1 0 l 0 0 l 0 0 l 0 0 z M 241.2 10.8 l 0 0 z M 238.7 10.8 c 0 0 0 0 0 0 s 0 0 0 0 s 0 0 0 0 s 0 0 0 0 z M 244.1 10.8 c 0 0 0 0 0 0 c 0 0 0 0 0 0 s 0 0 0 0 c 0 0 0 0 0 0 z M 244.7 10.7 c 0 0 -0.1 0 -0.1 0.1 c 0 0 0 0 0.1 0 s 0 0 0 0 c 0 0 0 -0.1 0 -0.1 z M 245.5 10.6 l 0 0.2 l 0.1 -0.1 z M 233.4 10.3 c 0 0.1 0.1 0.3 0.1 0.4 l 0.1 -0.2 s 0 -0.2 -0.1 -0.3 z M 240.4 10.5 c 0 0 -0.1 0 -0.1 0 s 0 0 0.1 0 s 0 0 0 0 s 0 0 0 0 z M 244.8 10.2 c -0.1 0 -0.2 0.2 -0.2 0.3 c 0.2 0 0.2 -0.1 0.2 -0.3 z M 245.5 10.5 l 0 0 l 0.1 0 z M 245.5 10.2 c 0 0 0 0 0 0 c 0 0 0 0 0 0 s 0 0 0 0 c 0 0 0 0 0 0 z M 237.2 10.1 c 0 0.1 0.2 0.2 0.2 0.2 c 0.1 -0.1 0.5 0 0.4 -0.2 l -0.6 0 z M 239.7 10.2 l -0.1 0 c 0 0 0 0.1 0 0.1 c 0 0 0 0 0 -0.1 z M 234.9 10 l 0 0.1 l 0.2 0 l 0 -0.1 l -0.2 0 z M 235.7 9.9 c -0.1 0 -0.3 0.1 -0.3 0.2 l 0.3 0 l 0 -0.2 z M 238.7 10 l 0 0.1 l 0.2 0 z">
        </path>
    </g>
    <g id="SvgjsG1425"
        transform="matrix(1.4,0,0,1.4,-0.7,156.8)"
        fill="#111111">
        <path
            d="M 0.6 39.4 c 0 -0.5 0.2 -0.3 0.4 -0.4 c 0.3 0 0.8 0 1.3 0 c 1 0 2.3 -0.1 2.4 -0.9 c 0 -0.8 -0.1 -0.7 -0.1 -1.7 c 0 -0.4 0 -3.4 0 -3.8 c 0 -0.5 0 -1.4 0 -2.4 l 0 -13 c 0 0 0 -0.4 0 -0.4 s 0 -0.1 0 -0.6 l 0 -4.2 c -0.1 -0.2 -0.1 -0.8 -0.3 -0.8 c -1.1 0 -2.8 0.1 -3 0.1 c -0.3 0 -0.8 -0.1 -0.8 -0.6 c 0 -0.9 0.4 -0.9 0.6 -1 l 2.3 0 s 0.7 0 1 0 c 0.1 0 0.4 0 0.8 0 l 3.7 0 c 0.1 0 0.3 -0.1 0.4 -0.1 s 0.3 0.1 0.5 0.1 l 6.3 0 c 0.4 0 1.3 0.3 2.4 0.3 c 0 0 0 0 0 0 c 0.1 0 0.8 0.4 1.5 0.4 c 0.1 0 1.6 0 1.6 0.6 c 0 0 0 -0.1 0.1 -0.1 c 0.2 0 0.8 0.2 2.4 1.2 l 0 0.1 c 0.1 0.3 1.3 0.8 1.8 1.4 c 0 0.5 1.4 1.4 1.4 1.8 c 0 0 0 0 0 0.1 l 0 0 c 0.1 0 1 1.6 1.5 3.1 c 0 0 0 0 0 0 c 0 0.2 0.9 1.5 0.9 3.4 c 0.1 0.6 0.2 3.4 0.2 3.8 c 0 0.3 -0.2 1 -0.2 1.5 c 0 0 -0.3 1.5 -0.3 1.7 l 0 0 c -0.1 0 0 1.5 -0.5 2 c -0.2 0 0.2 0.9 -0.6 1.7 c -0.1 0.1 -0.3 0.3 -0.3 0.8 c -1.4 2.5 -1.4 1.5 -2 2.6 c 0 0.3 -0.3 0.2 -0.6 0.4 c -0.6 1.1 -1.8 1.5 -3.5 2.4 c -0.6 0 -1.7 0.8 -2.7 0.8 c 0 0 -4.4 0.3 -6.5 0.3 c -0.5 0 -1 0 -1.5 0 c -0.2 0 -5.2 0 -7 0.1 c -0.2 0 -0.6 0 -1.2 0 c -0.7 0 -0.8 0.2 -1.5 0.2 c -0.4 0 -0.7 -0.2 -0.7 -0.8 z M 1 39.8 c 0.2 0.1 0.3 0.1 0.4 0.1 c 0.2 0 0.2 0 0.2 -0.1 l -0.6 0 z M 2.8 39.9 c 0 0 0 0 0 0 c 0 0 0 0 0 0 s 0 0.1 0 0.1 c 0 0 0 0 0 -0.1 z M 3.3 39.8 c 0 0 -0.1 0 -0.1 0.1 s 0 0.1 0.1 0.1 s 0 0 0 -0.1 s 0 -0.1 0 -0.1 z M 13.7 39.7 c 0 0 -0.1 0 -0.1 0.1 s 0 0.1 0.1 0.1 s 0 0 0 -0.1 s 0 -0.1 0 -0.1 z M 14.4 39.8 c 0 0 0 0 0 0 c 0 0 0 0 0 0 s 0 0.1 0 0.1 c 0 0 0 0 0 -0.1 z M 1.7 39.2 c -0.1 0 -0.1 0.2 -0.1 0.2 c 0.1 0 0.1 -0.2 0.1 -0.2 z M 1 39.2 c 0 0.1 0 0.1 0.2 0.2 l 0 0 c 0.1 0 0.3 -0.2 0.3 -0.3 c -0.1 0 -0.4 0 -0.4 0 l 0 0 z M 1.6 39.2 c 0 0 0 0 0 0.1 s 0 0 0 0 l 0 -0.1 z M 10.5 37.3 c 0.1 0.9 0.1 1.6 0.5 1.6 l 2.7 0 c 0.1 0 0.2 0 0.2 0 c 0 0 0.3 0 0.5 0 c 0.6 0 1.5 0 1.8 -0.2 c -0.3 -0.2 0.4 0.3 1.2 -0.3 c 1.9 -0.1 1.2 -0.4 1.9 -0.8 c 0.1 0 1 -0.5 1.1 -0.8 c 0 -0.3 0.6 -0.5 0.7 -0.6 c 0 0 -0.1 -0.1 -0.1 -0.1 c 0 -0.2 0.7 -0.4 0.7 -1 c 0 0 0 0 0 -0.1 c 0 -0.2 0.4 -0.3 0.4 -1 l 0 0 c 0.1 0 0.9 -3.3 0.9 -5 c 0 0 0 -0.6 0 -1.3 s 0 -1.3 0.2 -1.4 c 0 -0.1 -0.1 -0.5 -0.1 -0.6 c 0 0 0.1 -0.8 0.1 -0.9 c 0 -10.8 -2.8 -11.5 -3.8 -12.6 c -0.8 0 -1 -0.7 -2.1 -0.7 c -2.2 -0.1 -3.2 -0.3 -6.3 -0.3 c -0.6 1.5 -0.1 3.1 -0.5 3.9 c 0 0.1 0.1 0.3 0.1 1.2 c 0 0.5 0 0.4 -0.1 0.6 l 0 2.1 c 0 0 0.1 0.3 0.1 0.4 c 0 0 -0.1 0.2 -0.1 0.2 c 0 0.1 0.1 0.6 0.1 0.9 l -0.1 0.1 c 0 0 0.1 0.4 0.1 0.5 l 0 4.6 c 0 0.1 0 0.4 0 0.5 c 0 0.6 -0.1 2.5 -0.1 3.8 c 0 0.3 0.1 0.6 0.1 0.7 c 0 0.4 -0.1 0.9 -0.1 1.3 c 0 0.5 0 1.6 0.1 1.6 c 0 0 0 0.7 0 0.8 c 0 0 0 0 0 0.1 s 0.1 0.2 0.1 0.4 c 0 0.1 0 0.5 -0.1 2.4 z M 4.9 37.1 c 0 0 0 0 0 0 s 0 0.1 0 0.1 s 0 0 0 -0.1 s 0 0 0 0 z M 23.8 30.9 l 0 0 l 0 0 z M 9.2 19.4 l -0.1 0.1 l 0.1 0 l 0 -0.1 z M 4.9 16.1 c -0.1 0.2 0 0.5 0 0.6 z M 5.1 15.9 c 0 0 -0.1 0 -0.1 0.1 c 0 0 0 0 0.1 0 s 0 0 0 0 c 0 0 0 -0.1 0 -0.1 z M 23.3 13.5 l 0 0 c 0 0 0 0 0 0 c 0 0 0 0.1 0 0.1 c 0 0 0 0 0 -0.1 z M 23.6 13.5 c 0 0 0 0 -0.1 0 l 0 0 c 0 0 0 0.1 0 0.1 c 0 0 0.1 0 0.1 -0.1 z M 17.4 10.6 c 0 0.2 0.1 0.2 0.1 0.2 s 0 0 0 0 c 0 -0.1 -0.2 -0.2 -0.3 -0.2 c -0.1 0 -0.3 0 -0.4 0.1 l 0.6 0 z M 3 10.5 c 0 0 -0.1 0 -0.1 0.1 s 0 0.1 0.1 0.1 s 0 0 0 -0.1 s 0 -0.1 0 -0.1 z M 11.3 10.5 c -0.1 0 -0.1 0 -0.2 0.1 l 0.2 -0.1 l 0 0 z M 15.6 10.5 l -0.4 0 l 0 0.1 c 0.2 0 0.6 0 0.6 -0.1 l -0.2 0 z M 16.2 10.5 c 0 0 0 0 0 0 c 0 0 0 0 0 0 l 0.1 0 z M 32.4 40.2 c -0.4 0 -0.4 0 -0.7 0 c -0.1 0 -0.4 -0.3 -0.6 -0.4 c 0 0 0.1 -0.6 0.1 -0.7 c 1.4 -0.1 2.5 -0.2 3.6 -0.3 c 0.1 0 0 -0.8 0.4 -0.8 l 0 -0.6 c 0 0 0.1 0 0.1 0 c 0.2 0 0.2 -1.1 0.5 -1.2 c 0 -0.1 0.2 -1.4 0.6 -1.8 l 0.2 -0.8 s 1.4 -4.6 1.9 -4.6 c 0 0 0.1 0 0.2 0 c 0.2 0 0.2 -0.1 0.2 -0.2 c 0 -0.4 -0.3 -0.2 -0.3 -0.5 c 0 -0.7 0.7 -2.1 0.8 -2.2 c 0 -1.6 0.6 -1.2 0.6 -2.3 l 0 0 c 0 0 0.4 -1 0.5 -1.1 c 0 0.1 0 0.1 0 0.1 s 0 0 0 0 c 0 -0.2 0.8 -1.9 0.8 -2.3 c 0.2 0 0.2 0 0.2 -0.1 s 0 -0.2 0 -0.3 c 0 -0.2 0.1 -0.5 0.4 -0.8 l 0 0 c 0.1 0 0 -0.9 0.4 -0.9 l 0.2 -0.8 l 0.2 -0.2 l 0 -0.6 l 0.3 -0.2 l 0 -0.7 s 0.2 -0.1 0.2 -0.2 c 0 0 -0.1 -0.1 -0.1 -0.1 c 0 -0.5 1 -2 1 -3.1 l 0.2 -0.2 l 0 -0.6 c 0 0 0 0 0 0 c 0.6 0 -0.2 -2.3 1.9 -2.3 c 0.2 0 0.9 0.4 0.9 1 c 0.2 0.2 -0.2 0.6 0.6 1.9 c 0 0 1 2.6 1 3.3 c 0.4 0 0.1 0.8 1 2.7 c 0.2 1.1 0.7 1 0.7 1.5 l 0 0 s 0.2 1.3 0.4 1.3 l 0 0 c 0 0.2 1 1.2 1 2.4 c 0.2 1.2 0.6 0.7 0.6 1.7 l 0 0 c 0 0.1 0.6 0.9 0.6 1.4 c 0 0 -0.1 0 -0.1 0 c 0 0.2 0.4 0.7 0.4 0.9 c 0 0 0 0 0 0.1 c 0 0.1 0.4 0.4 0.4 1.1 c 0.2 1.4 0.8 1.5 0.8 2.4 c 0 0.1 -0.1 0.1 -0.1 0.2 c 0 0.2 0.6 0.2 0.6 1.1 c 0 2.3 1.6 2.8 1.6 4.4 c 0.2 1.3 0.9 1.7 1 1.8 l 2.6 0 c 0.2 0 0.4 0.1 0.5 0.2 l 0 0.7 c -0.2 0.1 -0.3 0.2 -0.9 0.2 c -0.1 0 -2 -0.1 -2.8 -0.1 c -0.4 0 -0.7 0.1 -1 0.1 c 0 0 -0.7 -0.1 -0.8 -0.1 c -2.2 0 -3.5 0.1 -4.4 0.1 c 0 0 0 -0.1 -0.7 -0.1 c -0.3 0 -0.4 0 -0.6 0.1 c -0.2 0 -0.4 -0.1 -0.4 -0.2 c -0.1 0 -0.2 0 -0.2 0 l 0.1 0.1 l -0.1 0.1 c -1.3 0 -1.4 0 -1.7 -0.2 l 0.1 -0.7 c 0 -0.1 0.3 -0.2 0.4 -0.2 l 3 0 c 0 0 0.3 -0.2 0.3 -0.4 c 0 -0.1 -0.6 -0.9 -0.6 -1.4 c 0.1 0 0.1 0 0.1 -0.1 c 0 -0.2 -0.7 -0.7 -0.7 -1.8 c 0 0 0 0 0 0 c 0 -0.1 -0.4 -0.4 -0.4 -0.7 c 0 -1.4 -0.6 -1.4 -0.6 -2.5 l 0 0 c -0.1 0 -0.4 -1 -0.8 -1 c -2.7 0 -5.5 0.1 -8.8 0.1 c 0 0.2 -0.3 0.2 -0.3 0.7 c -0.6 1.3 -0.7 1.1 -0.7 1.8 c -0.5 0.3 0 0.6 -0.5 1.2 c -0.3 2.2 -0.8 1 -0.8 2.4 l 0 0 c -0.1 0 -0.4 1 -0.5 1 c 0 0.6 0.2 0.6 0.4 0.8 l 3.2 0 c 0.2 0 0.6 0 0.6 0.5 s -0.1 0.7 -0.8 0.7 c -0.1 0 -0.3 -0.1 -0.5 -0.1 c -0.4 0 -0.6 0.1 -0.8 0.1 c -0.1 0 -0.3 -0.1 -0.3 -0.1 l -2.8 0 c -0.1 0.1 -0.2 0.1 -0.2 0.1 c -0.1 0 -0.3 0 -0.5 -0.2 c 0 0 0.1 -0.1 0.1 -0.2 l -0.1 0 c -0.1 0 -0.1 0 -0.1 0.1 l 0 0.1 c 0 0.2 -0.1 0.2 -0.3 0.2 c 0 -0.5 0 -0.4 0.1 -0.6 c 0 -0.2 0 -0.4 -0.1 -0.4 c 0 0.3 -0.1 0.5 -0.4 0.6 c 0 0.1 0.1 0.2 0.2 0.2 c -0.2 0 -0.6 0.2 -0.7 0.3 c -0.7 0 -0.6 -0.2 -1.1 -0.2 z M 32.1 39.8 l 0 0.1 l 0.2 0 c -0.1 -0.1 -0.2 -0.1 -0.2 -0.1 z M 32.8 39.9 c 0 0 0 0 -0.1 0 s -0.1 0 -0.1 0 s 0 0.1 0.1 0.1 s 0.1 0 0.1 -0.1 z M 33 39.8 c 0 0 -0.1 0 -0.1 0.1 s 0 0.1 0.1 0.1 s 0 0 0 -0.1 s 0 -0.1 0 -0.1 z M 33.9 39.8 c -0.2 0 -0.6 0.1 -0.6 0.2 c 0.7 0 0.5 0 0.6 -0.2 z M 35.2 39.8 c 0 0 0.3 0.1 0.4 0.1 l 0.1 -0.1 c -0.2 0 -0.4 0 -0.4 0 z M 38.2 39.8 c 0.5 0 1.3 0.1 1.5 0.1 c -0.4 0 -0.4 -0.4 -0.5 -0.6 c 0 0 -0.3 0.1 -0.3 0.3 c -0.1 0 0 -0.2 -0.4 -0.2 c 0 0.3 -0.2 0.4 -0.4 0.5 z M 40 39.8 l 0.1 0.1 c 0 0 0.3 -0.1 0.4 -0.1 l -0.4 0 z M 34.5 39.8 c 0 0 -0.1 0 -0.1 0.1 c 0 0 0 0 0.1 0 s 0 0 0 0 c 0 0 0 -0.1 0 -0.1 z M 37.7 39.8 c 0 0 -0.1 0 -0.1 0 c -0.1 0 -0.1 0 -0.1 0 c 0 0 0 0.1 0.1 0.1 c 0 0 0.1 0 0.1 -0.1 z M 47.5 39.8 c 0 0 0.2 0.1 0.2 0.1 s 0.2 0 0.3 -0.1 l 0 -0.5 s -0.1 0 -0.1 0 c -0.4 0 -0.4 0.1 -0.4 0.2 l 0 0.3 z M 58.4 39.8 c 0.1 0 0.2 0 0.4 0 c 0 0 0.2 0 0.4 0 l -0.7 0 z M 60.3 39.8 l 0 0 l 0 0 l 0 0 z M 48.6 39.8 l -0.1 0 l 0.1 0 z M 51.6 39.8 c 0 0 -0.1 0 -0.1 0 s 0 0 0.1 0 s 0 0 0 0 s 0 0 0 0 z M 57.1 39.8 c 0 0 0.1 0 0.2 0 l 0.8 0 c 0 0 -0.1 -0.1 -0.2 -0.1 c -0.1 0.1 -0.2 0.1 -0.2 0.1 c -0.4 0 -0.3 -0.3 -0.4 -0.3 z M 31.5 39.5 c 0 0.2 0 0.2 0.1 0.3 l 0.5 0 l 0 -0.7 c -0.6 0.3 -0.6 0.2 -0.6 0.4 z M 39.9 39.6 l 0 0.2 c 0.1 0 0.1 -0.1 0.1 -0.1 c 0 -0.2 -0.2 -0.2 -0.2 -0.4 c -0.2 0 -0.2 0.1 -0.2 0.1 c 0 0.1 0.1 0.2 0.3 0.2 z M 59.5 39.7 c 0 0 0 0 0 0.1 s 0 0 0 0 s 0 0 0 0 s 0 -0.1 0 -0.1 z M 32.6 39.2 c 0 0.3 0 0.4 -0.1 0.4 c 0.2 0 0.4 0 0.4 -0.2 s 0 -0.2 -0.3 -0.2 z M 36.8 39.6 l 0 0.1 l 0.1 0 z M 37.5 39.4 l 0.1 0 l 0 -0.1 z M 40.1 39.2 c 0 0 0 0.1 0 0.1 c 0 0 0.2 0 0.2 -0.1 c 0 -0.1 -0.1 -0.1 -0.2 -0.1 c 0 0 0 0.1 0 0.1 z M 58.4 39.2 c 0 0 0.1 0 0.1 0 c 0 -0.2 0 -0.2 -0.1 -0.2 c 0 0 0 0.1 0 0.2 z M 60.2 39 c -0.2 0 -0.2 0.1 -0.2 0.3 l 0.3 -0.2 c 0 0 -0.1 -0.1 -0.2 -0.1 z M 57.1 39.1 c 0 0 -0.1 0 -0.1 0 c 0 0 0 0 0.1 0 s 0 0 0 0 c 0 0 0 0 0 0 z M 35.2 39 l 0 0.1 l 0.1 -0.1 l -0.1 0 z M 35.3 38.4 c 0 0 0 0.6 0.4 0.6 c -0.1 0 -0.2 -0.4 -0.2 -0.6 l 0.1 -0.2 l -0.1 -0.1 c -0.2 0 -0.2 0.2 -0.2 0.3 z M 36.8 36.5 c -0.1 0.1 -0.3 0.3 -0.3 0.6 c 0 0 0.1 0 0.1 0 c 0.2 0 0.2 -0.2 0.2 -0.4 c 0 0 0 -0.4 0 -0.3 z M 36.6 35.4 c 0 0 0 0 0 0 c 0 0 0 0 0 0 s 0 0 0 0 c 0 0 0 0 0 0 z M 37.7 32.6 c 0 0 -0.1 0 -0.1 0 s 0 0 0.1 0 l 0 0 z M 49 32 c 0 0 0 0 0 0.1 s 0 0.1 0 0.1 s 0 0 0 -0.1 s 0 -0.1 0 -0.1 z M 38 31.7 c 0 0 0 0 0 0.1 s 0 0.1 0 0.1 s 0 0 0 -0.1 s 0 -0.1 0 -0.1 z M 38 30.8 c 0 0 0 0 0 0 c 0 0 0 0 0 0 s 0 0 0 0 c 0 0 0 0 0 0 z M 39.9 29.2 c 0.1 0.5 0.2 0.5 0.4 0.7 c 0.5 0 1.8 -0.1 5.4 -0.1 c 0.3 0 0.5 0.1 1.3 0.1 c 0.4 0 0.8 -0.1 0.8 -0.6 c 0 -0.2 -0.5 -1 -0.5 -1.4 l 0 0 c 0 -0.1 -0.4 -0.4 -0.4 -0.9 c 0 -1.5 -0.8 -1.3 -0.8 -2.2 c 0 0 0 0.1 0 0.1 c 0 0 -0.8 -1.3 -0.8 -2.1 c 0 -0.5 -0.7 -1.3 -0.7 -2.2 l 0 0 c 0 -0.1 -0.4 -0.5 -0.4 -1 c -0.4 -0.8 -0.4 -0.8 -0.7 -0.8 c -1.2 2.8 -1.1 2.8 -1.4 3.5 c 0 -0.1 0 1.3 -0.6 1.5 l 0 -0.1 c 0 0 -0.4 2.3 -0.8 2.6 c 0 0.5 -0.9 1.2 -0.9 2.7 z M 39.1 28.1 c 0 0 -0.1 0 -0.1 0.1 s 0 0.1 0.1 0.1 s 0 0 0 -0.1 s 0 -0.1 0 -0.1 z M 40 25.4 c 0 0 -0.1 0 -0.1 0.1 c 0 0 0 0 0.1 0 l 0 -0.1 z M 41.7 23.1 l 0 0 l 0 0 z M 41.5 22.4 c 0 0 -0.1 0 -0.1 0.1 l 0.1 0 l 0 0 c 0 0 0 -0.1 0 -0.1 z M 41.7 21.4 c 0 0 -0.1 0 -0.1 0 c 0 0 0 0.1 0.1 0.1 c 0 0 0 0 0 -0.1 z M 42.8 18.7 c 0 0 0 0 0 0 c 0 0 0 0 0 0 s 0 0.1 0 0.1 c 0 0 0 0 0 -0.1 z M 42.9 18.6 l 0 0 c 0 0 0 0 0 0 s 0 0 0 0 l 0 0 z M 47.2 15.8 c 0 0 0 0 0 0.1 s 0 0.1 0 0.1 s 0 0 0 -0.1 s 0 -0.1 0 -0.1 z M 46.5 10.2 c 0 0 0 0 0 0.1 l 0.1 0 c 0 0 0 -0.1 0 -0.1 z M 45.4 10.1 c 0 0 0 0 0 0.1 s 0 0.1 0 0.1 s 0 0 0 -0.1 s 0 -0.1 0 -0.1 z M 45.8 10.1 l 0.2 0.1 c 0.3 0 0.2 0 0.3 -0.1 l -0.1 -0.2 c -0.2 0 -0.2 0.2 -0.4 0.2 z M 59.7 11.6 c -0.2 0 -0.3 0.1 -0.5 0.1 c -0.6 0 -1.2 -0.4 -1.2 -0.6 l 0 0 c 0 0 0 -0.9 1 -0.9 c 0 0 1.7 0.1 2 0.1 c 0.9 0 4.2 -0.1 5 -0.1 c 0.3 0 3 0.1 3.3 0.1 c 0.4 0 0.9 0 1.3 0 c 0.7 0 1.1 0.1 1.1 0.8 c 0 0.4 -0.2 0.4 -0.4 0.6 c -1.6 0 -1.9 -0.1 -2.4 -0.1 c -0.1 0 -0.7 0.1 -0.7 0.1 l -0.1 0.1 l 0 0.4 c 0.2 0.2 -0.2 0.7 0.4 1.4 c 0 0.1 0 0.1 0 0.2 c 0 0.5 0.9 0.8 0.9 2.3 c 0 0 0 0 0 0 c 0 0.1 0.4 0.5 0.6 1.6 c 0.2 0 -0.2 0.3 0.6 1.2 c 0 0 0 0 0 0.1 c 0 0.2 0.4 0.6 0.4 0.9 c 0 0.1 0 0.2 0 0.2 c 0 0.1 0.6 0.8 0.6 1.8 c 0 1.2 1.1 1.9 1.1 3 c 0.2 1.1 0.8 1.4 0.8 2.1 c 0.4 0.1 0.1 0.7 0.6 1.1 c 0 0 -0.1 0 -0.1 0.1 c 0 0.2 0.4 0.6 0.4 1.1 c 0 0 -0.1 0 -0.1 0 c 0 0.2 0.6 0.7 0.6 1.2 c 0.2 0.7 0.3 0.8 0.4 1.2 c 0.2 0 0.7 0.4 1.3 -2.4 l 0 0 c 0 0 0.1 -1.2 0.5 -1.4 c 0.2 0 -0.3 -0.3 0.7 -2.2 c 0.5 -0.8 0.4 -1.8 0.8 -2.4 c 0 0 0.2 -1.4 0.6 -1.6 c 0 -0.2 0.2 -1.1 0.7 -2.2 c 0 -0.2 0.7 -1.4 0.7 -1.8 c 0.1 0 0.1 0 0.1 -0.1 s -0.1 -0.1 -0.1 -0.3 c 0 -0.2 0.1 -0.4 0.4 -0.9 c 0.3 -0.3 0.3 -1.5 0.6 -1.7 c 0.2 -1 0.4 -1.2 0.4 -1.4 c 0.1 0.1 0.1 -1 0.4 -1.5 c -0.1 -0.2 -0.4 -0.3 -0.6 -0.3 c -0.4 0 -0.4 0 -0.5 0.1 c -0.3 -0.1 -0.6 -0.1 -0.9 -0.1 l 0 0 c -0.6 0 -0.7 0.2 -1 0.2 c 0 0 -0.1 -0.1 -0.1 -0.1 c -0.1 0 -0.2 0 -0.3 0 c -0.2 0 -0.4 -0.1 -0.6 -0.4 c 0 -0.9 0.1 -0.4 0.8 -0.8 l 7.7 0 c 0.2 0 0.5 0.1 0.6 0.2 l -0.2 0 c 0 0 0.1 0.2 0.1 0.2 c 0.1 0 0.1 0 0.2 -0.1 c 0 1.2 -0.8 0.7 -1 1 c -0.3 0 -1.1 0 -1.2 -0.2 l -1 0 s -0.2 0.2 -0.2 0.3 c 0 0 -0.7 0.8 -0.7 1.6 c -0.1 0 0 0.6 -0.5 1.4 c 0 0 0 0 0 0.1 c 0 0.2 -0.4 0.7 -0.4 1 c 0 0.1 0 0.1 0 0.2 c 0 0.1 -0.3 0.9 -0.5 1 c 0 0 0.1 0 0.1 0.1 c 0 0.5 -1 2.4 -1 2.9 c 0 0 -0.2 0.8 -0.4 1 c -0.2 0.1 0 0.9 -0.6 1.8 c 0 0.5 -0.9 1.4 -0.9 2.6 c 0 0 -0.3 0.8 -0.4 0.9 c -0.1 0 -0.2 0 -0.2 0 c 0 0.4 0 0.3 0 0.6 c 0 0.1 -0.4 0.8 -0.4 1.5 l 0 0 c -0.3 0 -1.7 4.5 -1.6 4.6 l 0 0 c 0.1 0.1 -0.4 0.6 -0.4 1.2 c 0 0.8 -0.5 0.1 -0.5 1.5 c 0 0 0 0.1 0 0.1 c 0 0.2 -0.4 0.4 -0.4 1 c -0.2 2 -0.8 0.8 -0.8 2.2 c -0.1 0.5 0.1 1.4 -1 2.3 c -0.8 0 -1.2 -1.4 -1.2 -1.6 c -0.1 0 0.1 -0.5 -0.6 -1.6 c 0 0 0 0 0 -0.1 c 0 -0.2 -0.4 -0.6 -0.4 -1 c 0 -0.6 -0.9 -1 -0.9 -2.5 c 0 -0.4 -0.7 -1 -0.7 -1.5 l 0 0 c -0.1 0 0 -0.7 -0.6 -1.6 l 0 0 c 0 0 -0.5 -0.8 -0.6 -1.5 c 0 -0.3 -0.7 -0.6 -0.7 -1.8 c 0 0 0.1 0 0.1 -0.1 c 0 -0.3 -0.7 -0.8 -0.7 -1.7 c 0 -0.5 -0.8 -1.1 -0.8 -1.9 c -0.3 -0.6 -0.4 -1.2 -0.6 -1.8 c 0 0 0 0 0 0 c 0 -0.2 -1 -2.6 -1 -2.8 l 0 -0.2 c 0 0 -0.5 -1.2 -0.6 -1.2 c -0.2 0 0.1 -0.7 -0.6 -1.7 c 0 0 0 0 0 -0.1 c 0 -0.3 -0.6 -0.9 -0.6 -1.3 c 0 -0.7 -0.4 -1.2 -0.5 -1.8 c -0.2 0.3 0 -0.5 -0.3 -0.9 c -0.2 -0.9 -0.6 -0.7 -0.8 -1 l -1.5 0 z M 73.1 40.6 l 0 0.1 c 0.1 0 0.1 0 0.2 -0.1 l -0.2 0 z M 72.3 39.8 l 0 0 l 0.1 0 s 0 0 0 0 z M 73.7 39.5 c -0.2 0 -0.2 0.3 -0.2 0.3 c 0.2 0 0.2 0 0.2 -0.3 z M 71.9 38 c 0 0 0 0.1 0 0.1 c 0 0 0 0 0.1 -0.1 z M 78.1 26.8 l 0.1 0.1 l 0 -0.3 c -0.1 0.1 -0.1 0.1 -0.1 0.2 z M 78.2 26 c 0 0 -0.1 0 -0.1 0 c 0 0 0 0 0.1 0 s 0 0 0 0 c 0 0 0 0 0 0 z M 78.4 25.5 c -0.2 0 -0.2 0.3 -0.2 0.3 l 0.2 -0.2 z M 71.8 25.6 c 0 0 -0.1 0 -0.1 0.1 c 0 0 0 0 0.1 0 s 0 0 0 0 c 0 0 0 -0.1 0 -0.1 z M 66 22.5 l 0.1 0.1 l 0.1 0 c -0.1 -0.1 -0.1 -0.1 -0.2 -0.1 l 0 0 z M 80.5 20 c 0 0 -0.1 0 -0.1 0 c 0 0 0 0 0.1 0 c 0 0 0 0 0 0 z M 64.7 19.3 c 0 0 -0.1 0 -0.1 0.1 c 0 0 0 0 0.1 0 l 0 -0.1 z M 80.7 17.6 c 0 0 0 0 -0.1 0 s 0 0 0 0 s 0 0.1 0 0.1 s 0.1 0 0.1 -0.1 z M 81.5 16.8 l 0 0 l 0.1 0 l -0.1 0 z M 63.1 14.4 c 0 0 0.1 0.1 0.1 0.2 l 0.1 -0.1 c 0 -0.2 0 -0.4 -0.2 -0.4 c 0 0 -0.2 0.2 -0.2 0.3 l 0.1 0.1 z M 82.3 13.2 l 0 0 l 0.1 0 z M 63.8 11.3 c 0 0.1 0 0.2 0.1 0.2 c 0 0 0.1 0 0.1 0 c 0 0 -0.1 -0.1 -0.2 -0.2 l 0 0.1 z M 58.3 11 c 0 0 0.1 0.2 0.2 0.2 l 0.1 -0.1 l 0 0 s 0 0 0 0 c 0 -0.1 0 -0.1 -0.3 -0.1 z M 79.9 11.2 c 0 0 0 0 0 0 c 0 0 0 0 0 0 s 0 0 0 0 c 0 0 0 0 0 0 z M 78.9 11.1 c 0 0 -0.1 0 -0.1 0.1 s 0 0.1 0.1 0.1 c 0 0 0 0 0 -0.1 s 0 -0.1 0 -0.1 z M 79.7 11.1 l 0 0.1 l 0 0 c 0 0 0 0 0.1 -0.1 l -0.1 0 z M 86.3 11.1 l 0 0 c 0 0 0 0 0 0 c 0 0 0 0 0 0 c 0 0 0 0 0 0 z M 85.1 11.1 c 0 0 0 0 -0.1 0 l 0 0 c 0 0 0 0.1 0 0.1 c 0 0 0.1 0 0.1 -0.1 z M 63.7 11 c 0 0 -0.1 0 -0.1 0 c 0 0 0 0 0.1 0 s 0 0 0 0 c 0 0 0 0 0 0 z M 62.6 10.9 c 0 0 -0.1 0.1 -0.1 0.1 l 0 0 c 0 0 0.1 0 0.2 -0.1 z M 60.4 10.9 l 0 0.1 c 0.1 0 0.1 0 0.2 -0.1 l -0.2 -0.1 z M 62.1 10.9 c 0 0 0 0 0 0.1 s 0 0.1 0 0.1 s 0 0 0 -0.1 s 0 -0.1 0 -0.1 z M 66.7 10.9 l 0.1 0.1 l 0 -0.1 l -0.1 0 z M 69.9 11 c 0 0 0 0 -0.1 0 s -0.1 0 -0.1 0 s 0 0.1 0.1 0.1 s 0.1 0 0.1 -0.1 z M 71.2 10.8 c 0 0.2 0.1 0.2 0.1 0.2 c 0 -0.1 0 -0.2 -0.1 -0.2 z M 83.1 10.6 c -0.2 0 -0.2 0.2 -0.2 0.3 l 0.6 0 c -0.2 0 -0.3 -0.2 -0.4 -0.3 z M 85.2 10.6 c 0 0 0 0.2 0 0.3 c 0 0.1 0 0.1 0.1 0.1 l 0.1 -0.2 l 0 0 c 0 0 -0.1 -0.3 -0.2 -0.3 z M 59.5 10.9 c 0 0 0 0 -0.1 0 c 0 0 0 0 0 0 s 0 0.1 0 0.1 c 0 0 0.1 0 0.1 -0.1 z M 70.8 10.7 c -0.1 0.1 -0.1 0.1 -0.1 0.2 c 0.1 0 0.1 -0.1 0.1 -0.2 z M 85.6 10.6 c 0 0 0 0.1 0.1 0.1 c 0.2 0 0.2 -0.2 0.2 -0.3 c -0.2 0 -0.2 0 -0.2 0.2 z M 78.5 10.6 c -0.1 0.1 -0.1 0.2 -0.1 0.2 c 0 0 0.1 0 0.1 -0.2 z M 93.4 39.4 c 0.2 -0.6 0.3 -0.7 0.8 -0.7 c 1.3 0 1.6 0.1 2.6 0.1 c 0.4 0 0.5 -0.3 0.7 -0.5 l -0.1 -6.2 c 0 -0.1 0.1 -0.2 0.1 -0.3 c 0 0 -0.1 -0.6 -0.1 -0.7 c 0 0 0 -0.8 0.1 -1.2 c 0 0 -0.1 -0.2 -0.1 -0.2 l 0 -2.8 c 0.1 -0.1 0.1 -0.2 0.1 -0.3 c 0 -0.2 -0.1 -0.4 -0.1 -0.6 c 0 0 -0.1 -9.6 -0.1 -12.7 l 0.1 -0.2 l 0 -1.9 c -0.3 -0.4 -1.2 -0.1 -1.3 -0.3 l -0.2 0.1 l 0 0 c -0.1 0 -0.3 -0.1 -0.8 -0.1 c -0.1 0 -0.5 0.1 -0.6 0.2 c -0.6 0 -1.1 0.1 -1.1 -0.7 c 0 -0.3 0.2 -0.8 1.5 -0.8 c 0.2 0 0.5 0.1 0.8 0.1 c 0.2 0 2.2 -0.1 2.3 -0.1 c 0.3 0 0.8 0.1 0.9 0.1 c 0.2 0 2.2 -0.2 3.2 -0.2 c 0.1 0 0.1 0.4 0.4 0.4 c 0 0 0 0 0 0 s 0 -0.1 0 -0.2 c 0.4 0 0.9 -0.1 1.5 -0.2 c 0 0 0.2 0.1 0.2 0.1 c 0 0 0.1 -0.1 0.1 -0.2 c 0 0 0.2 0 0.3 0.1 c 0.2 0 0.7 -0.2 0.8 -0.2 c 1.6 0 1.6 0.7 1.6 1.1 c 0 0.2 -0.3 0.6 -0.5 0.6 c -0.8 0 -2.3 -0.2 -2.7 -0.2 c -0.3 0 -0.5 0.5 -0.5 0.8 l 0 13.4 c 0 0.2 0 0.8 0 0.8 c 0 0 0 0 0 0.6 c 0 1.4 0 2 0 2.7 c 0 1.1 0 1 0 1.2 l 0 4.6 c 0 0.2 -0.1 3.4 0.5 3.5 c 0.1 0 1.5 0 2.2 0 l 0.1 -0.1 l 0.7 0 c 0.4 0.2 0.5 0.6 0.5 0.8 c 0 0.2 -0.3 0.7 -0.4 0.7 c -1.9 0 -4.8 0.1 -5.2 0.1 c 0 0 -1.2 -0.1 -1.8 -0.1 c -1.8 0 -4 0.1 -5.3 0.1 c -1 0 -1.2 -0.3 -1.2 -0.7 z M 94.3 39.8 c 0 0 0 0 -0.1 0 s -0.1 0 -0.1 0 s 0 0.1 0.1 0.1 s 0.1 0 0.1 -0.1 z M 94.5 39.8 c 0.2 0 0.2 0.1 0.4 0.1 c 0.1 0 0.2 0 0.3 -0.1 c -0.3 0 -0.4 -0.3 -0.5 -0.3 c 0 0 -0.2 0 -0.2 0.2 l 0 0.1 z M 95.3 39.8 c 0 0 -0.1 0 -0.1 0.1 s 0 0.1 0.1 0.1 c 0 0 0 0 0 -0.1 s 0 -0.1 0 -0.1 z M 96.3 39.7 l 0.1 0.1 c 0.2 0 0.2 0 0.3 -0.1 l -0.1 0 c -0.4 0 -0.2 0 -0.3 0 z M 104.9 39.4 c -0.2 0.1 -0.2 0.2 -0.2 0.4 c 0.2 -0.1 0.2 -0.2 0.2 -0.4 l 0 0 z M 106.3 39.4 c -0.3 0 -0.3 0.3 -0.3 0.4 l 0.5 0 c 0 -0.3 -0.1 -0.4 -0.2 -0.4 z M 103.3 39.6 l -0.1 0 c 0 0 0 0 0 0 z M 103.7 39.7 l -0.1 0 z M 106.7 39.3 l 0 0.2 c 0.1 0 0.2 -0.2 0.2 -0.2 l -0.2 0 z M 94 39 c -0.3 0 -0.3 0.3 -0.3 0.4 c 0.2 -0.1 0.4 -0.1 0.4 -0.2 c 0 0 0 -0.2 -0.2 -0.2 z M 97 39.3 l 0.1 0.1 l 0 -0.1 l -0.1 0 z M 94.7 39.1 l 0 0.1 l 0.1 -0.1 l -0.1 0 z M 105.9 39 c 0 0 0 0 0 0.1 s 0 0 0.1 0.1 l 0.1 -0.1 l -0.1 -0.2 c 0 0 -0.1 0 -0.1 0.1 z M 106.5 39.1 c 0 0.1 0.1 0.1 0.2 0.1 c 0 0 0 -0.1 0 -0.2 z M 97.9 38.6 c 0 0 0 0 0 0.1 s 0.1 0 0.2 0 l 0 -0.1 l -0.2 0 z M 102.6 12.8 c 0 0 -0.1 0 -0.1 0 l 0.1 0 l 0 0 c 0 0 0 0 0 0 z M 104.6 10.6 c 0 0 -0.1 0 -0.1 0.1 s 0 0.1 0.1 0.1 s 0 0 0 -0.1 s 0 -0.1 0 -0.1 z M 93.6 10.3 c 0 0 -0.1 0 -0.1 0.1 c 0 0 0 0 0.1 0 s 0 0 0 0 c 0 0 0 -0.1 0 -0.1 z M 95.9 10.1 c 0 0 -0.1 0 -0.1 0.1 c 0 0 0 0 0.1 0 l 0 -0.1 z M 96.5 10.1 c 0 0 0 0 0 0 c 0 0 0 0 0.1 0.1 l 0 -0.1 l -0.1 0 z M 93.9 10 c -0.2 0 -0.1 0 -0.1 0.1 c 0.1 0 0.2 0 0.2 -0.1 z M 113.7 39.4 c 0 -0.5 0.2 -0.3 0.4 -0.4 c 0.3 0 0.8 0 1.3 0 c 1 0 2.3 -0.1 2.4 -0.9 c 0 -0.8 -0.1 -0.7 -0.1 -1.7 c 0 -0.4 0 -3.4 0 -3.8 c 0 -0.5 0 -1.4 0 -2.4 l 0 -13 c 0 0 0 -0.4 0 -0.4 s 0 -0.1 0 -0.6 l 0 -4.2 c -0.1 -0.2 -0.1 -0.8 -0.3 -0.8 c -1.1 0 -2.8 0.1 -3 0.1 c -0.3 0 -0.8 -0.1 -0.8 -0.6 c 0 -0.9 0.4 -0.9 0.6 -1 l 2.3 0 s 0.7 0 1 0 c 0.1 0 0.4 0 0.8 0 l 3.7 0 c 0.1 0 0.3 -0.1 0.4 -0.1 s 0.3 0.1 0.5 0.1 l 6.3 0 c 0.4 0 1.3 0.3 2.4 0.3 c 0 0 0 0 0 0 c 0.1 0 0.8 0.4 1.5 0.4 c 0.1 0 1.6 0 1.6 0.6 c 0 0 0 -0.1 0.1 -0.1 c 0.2 0 0.8 0.2 2.4 1.2 l 0 0.1 c 0.1 0.3 1.3 0.8 1.8 1.4 c 0 0.5 1.4 1.4 1.4 1.8 c 0 0 0 0 0 0.1 l 0 0 c 0.1 0 1 1.6 1.5 3.1 c 0 0 0 0 0 0 c 0 0.2 0.9 1.5 0.9 3.4 c 0.1 0.6 0.2 3.4 0.2 3.8 c 0 0.3 -0.2 1 -0.2 1.5 c 0 0 -0.3 1.5 -0.3 1.7 l 0 0 c -0.1 0 0 1.5 -0.5 2 c -0.2 0 0.2 0.9 -0.6 1.7 c -0.1 0.1 -0.3 0.3 -0.3 0.8 c -1.4 2.5 -1.4 1.5 -2 2.6 c 0 0.3 -0.3 0.2 -0.6 0.4 c -0.6 1.1 -1.8 1.5 -3.5 2.4 c -0.6 0 -1.7 0.8 -2.7 0.8 c 0 0 -4.4 0.3 -6.5 0.3 c -0.5 0 -1 0 -1.5 0 c -0.2 0 -5.2 0 -7 0.1 c -0.2 0 -0.6 0 -1.2 0 c -0.7 0 -0.8 0.2 -1.5 0.2 c -0.4 0 -0.7 -0.2 -0.7 -0.8 z M 114.2 39.8 c 0.2 0.1 0.3 0.1 0.4 0.1 c 0.2 0 0.2 0 0.2 -0.1 l -0.6 0 z M 115.9 39.9 c 0 0 0 0 0 0 c 0 0 0 0 0 0 s 0 0.1 0 0.1 c 0 0 0 0 0 -0.1 z M 116.4 39.8 c 0 0 -0.1 0 -0.1 0.1 s 0 0.1 0.1 0.1 s 0 0 0 -0.1 s 0 -0.1 0 -0.1 z M 126.9 39.7 c 0 0 -0.1 0 -0.1 0.1 s 0 0.1 0.1 0.1 s 0 0 0 -0.1 s 0 -0.1 0 -0.1 z M 127.5 39.8 c 0 0 0 0 0 0 c 0 0 0 0 0 0 s 0 0.1 0 0.1 c 0 0 0 0 0 -0.1 z M 114.9 39.2 c -0.1 0 -0.1 0.2 -0.1 0.2 c 0.1 0 0.1 -0.2 0.1 -0.2 z M 114.1 39.2 c 0 0.1 0 0.1 0.2 0.2 l 0 0 c 0.1 0 0.3 -0.2 0.3 -0.3 c -0.1 0 -0.4 0 -0.4 0 l 0 0 z M 114.8 39.2 c 0 0 0 0 0 0.1 s 0 0 0 0 l 0 -0.1 z M 123.6 37.3 c 0.1 0.9 0.1 1.6 0.5 1.6 l 2.7 0 c 0.1 0 0.2 0 0.2 0 c 0 0 0.3 0 0.5 0 c 0.6 0 1.5 0 1.8 -0.2 c -0.3 -0.2 0.4 0.3 1.2 -0.3 c 1.9 -0.1 1.2 -0.4 1.9 -0.8 c 0.1 0 1 -0.5 1.1 -0.8 c 0 -0.3 0.6 -0.5 0.7 -0.6 c 0 0 -0.1 -0.1 -0.1 -0.1 c 0 -0.2 0.7 -0.4 0.7 -1 c 0 0 0 0 0 -0.1 c 0 -0.2 0.4 -0.3 0.4 -1 l 0 0 c 0.1 0 0.9 -3.3 0.9 -5 c 0 0 0 -0.6 0 -1.3 s 0 -1.3 0.2 -1.4 c 0 -0.1 -0.1 -0.5 -0.1 -0.6 c 0 0 0.1 -0.8 0.1 -0.9 c 0 -10.8 -2.8 -11.5 -3.8 -12.6 c -0.8 0 -1 -0.7 -2.1 -0.7 c -2.2 -0.1 -3.2 -0.3 -6.3 -0.3 c -0.6 1.5 -0.1 3.1 -0.5 3.9 c 0 0.1 0.1 0.3 0.1 1.2 c 0 0.5 0 0.4 -0.1 0.6 l 0 2.1 c 0 0 0.1 0.3 0.1 0.4 c 0 0 -0.1 0.2 -0.1 0.2 c 0 0.1 0.1 0.6 0.1 0.9 l -0.1 0.1 c 0 0 0.1 0.4 0.1 0.5 l 0 4.6 c 0 0.1 0 0.4 0 0.5 c 0 0.6 -0.1 2.5 -0.1 3.8 c 0 0.3 0.1 0.6 0.1 0.7 c 0 0.4 -0.1 0.9 -0.1 1.3 c 0 0.5 0 1.6 0.1 1.6 c 0 0 0 0.7 0 0.8 c 0 0 0 0 0 0.1 s 0.1 0.2 0.1 0.4 c 0 0.1 0 0.5 -0.1 2.4 z M 118.1 37.1 c 0 0 0 0 0 0 s 0 0.1 0 0.1 s 0 0 0 -0.1 s 0 0 0 0 z M 137 30.9 l 0 0 l 0 0 z M 122.3 19.4 l -0.1 0.1 l 0.1 0 l 0 -0.1 z M 118.1 16.1 c -0.1 0.2 0 0.5 0 0.6 z M 118.2 15.9 c 0 0 -0.1 0 -0.1 0.1 c 0 0 0 0 0.1 0 s 0 0 0 0 c 0 0 0 -0.1 0 -0.1 z M 136.4 13.5 l 0 0 c 0 0 0 0 0 0 c 0 0 0 0.1 0 0.1 c 0 0 0 0 0 -0.1 z M 136.7 13.5 c 0 0 0 0 -0.1 0 l 0 0 c 0 0 0 0.1 0 0.1 c 0 0 0.1 0 0.1 -0.1 z M 130.6 10.6 c 0 0.2 0.1 0.2 0.1 0.2 s 0 0 0 0 c 0 -0.1 -0.2 -0.2 -0.3 -0.2 c -0.1 0 -0.3 0 -0.4 0.1 l 0.6 0 z M 116.1 10.5 c 0 0 -0.1 0 -0.1 0.1 s 0 0.1 0.1 0.1 s 0 0 0 -0.1 s 0 -0.1 0 -0.1 z M 124.4 10.5 c -0.1 0 -0.1 0 -0.2 0.1 l 0.2 -0.1 l 0 0 z M 128.8 10.5 l -0.4 0 l 0 0.1 c 0.2 0 0.6 0 0.6 -0.1 l -0.2 0 z M 129.3 10.5 c 0 0 0 0 0 0 c 0 0 0 0 0 0 l 0.1 0 z">
        </path>
    </g>
</svg>