<?xml version="1.0" encoding="utf-8"?>

<svg width="150" height="85" viewBox="0 0 150 85" class="css-1j8o68f">
    <defs id="SvgjsDefs1111"></defs>
    <g id="SvgjsG1112" transform="matrix(1,0,0,1,0,19)" fill="#ffffff">
        <rect y="60" width="150" height="5"></rect>
    </g>
    <g id="SvgjsG1114" transform="matrix(0.6,0,0,0.6,-1.5,-3)" fill="#ffffff">
        <path
            d="M 22.8 12.4 l 3.9 0 l 0 27.6 l -4.2 0 l -14.4 -21.9 l 0 21.9 l -3.8 0 l 0 -27.6 l 4.2 0 l 14.5 21.8 l 0 -21.8 z M 40.9 40 l 0 -27.6 l 3.9 0 l 0 27.6 l -3.9 0 z M 70.8 40.4 c -7.8 0 -13.8 -5.4 -13.8 -14.2 c 0 -8.8 6 -14.2 13.8 -14.2 c 5.6 0 10.2 2.8 12.3 7.5 l -3.6 1.4 c -1.6 -3.4 -4.9 -5.3 -8.8 -5.3 c -5.5 0 -9.9 3.8 -9.9 10.5 c 0 6.7 4.4 10.5 9.9 10.5 c 3.9 0 7.1 -1.9 8.8 -5.3 l 3.6 1.4 c -2.1 4.7 -6.8 7.5 -12.3 7.5 z M 112.3 12.4 l 3.9 0 l 0 27.6 l -3.9 0 l 0 -12.1 l -13.6 0 l 0 12.1 l -3.9 0 l 0 -27.6 l 3.9 0 l 0 12.1 l 13.6 0 l 0 -12.1 z M 142.2 40.4 c -7.8 0 -13.8 -5.4 -13.8 -14.2 c 0 -8.8 6 -14.2 13.8 -14.2 c 7.8 0 13.8 5.4 13.8 14.2 c 0 8.8 -6 14.2 -13.8 14.2 z M 142.2 36.7 c 5.5 0 9.9 -3.8 9.9 -10.5 c 0 -6.7 -4.4 -10.5 -9.9 -10.5 c -5.5 0 -9.9 3.8 -9.9 10.5 c 0 6.7 4.4 10.5 9.9 10.5 z M 172.2 36.5 l 9.4 0 l 0 3.5 l -13.3 0 l 0 -27.6 l 3.9 0 l 0 24.1 z M 210.5 40 l -2.3 -6.4 l -12.3 0 l -2.3 6.4 l -4 0 l 10.2 -27.6 l 4.7 0 l 10.2 27.6 l -4 0 z M 197.1 30.2 l 9.9 0 l -5 -13.9 z M 234.3 40.4 c -5.8 0 -10 -2.8 -10.9 -7.4 l 4 -0.9 c 0.6 3.2 3.4 5.1 7.1 5.1 c 2.9 0 5.8 -1.2 5.7 -4.5 c 0 -3.3 -3.6 -4.2 -7.4 -5.2 c -4.3 -1.2 -8.6 -2.5 -8.6 -7.6 c 0 -5.1 4.2 -7.7 9.3 -7.7 c 4.9 0 9.2 2.1 10.3 6.8 l -3.8 1 c -0.7 -3.1 -3.2 -4.4 -6.3 -4.4 c -2.8 0 -5.5 1.2 -5.5 4.4 c 0 2.9 3.1 3.7 6.6 4.6 c 4.4 1.2 9.4 2.6 9.4 8.1 c 0 5.6 -4.7 7.9 -9.9 7.9 z">
        </path>
    </g>
    <g id="SvgjsG1115" transform="matrix(1.05,0,0,1.05,-4,23.2)" fill="#ffffff">
        <path
            d="M 4.2 40 l 0 -27.6 l 9.1 0 c 8.5 0 12.8 5.7 12.8 13.8 c 0 8.1 -4.3 13.8 -12.8 13.8 l -9.1 0 z M 8.1 36.5 l 5.1 0 c 6 0 8.9 -4 8.9 -10.3 c 0 -6.3 -2.9 -10.3 -8.9 -10.3 l -5.1 0 l 0 20.6 z M 56.3 40 l -2.3 -6.4 l -12.3 0 l -2.3 6.4 l -4 0 l 10.2 -27.6 l 4.7 0 l 10.2 27.6 l -4 0 z M 42.9 30.2 l 9.9 0 l -5 -13.9 z M 88.5 12.4 l 4.1 0 l -10.2 27.6 l -4.1 0 l -10.1 -27.6 l 4.1 0 l 8.1 22.9 z M 103.7 40 l 0 -27.6 l 3.9 0 l 0 27.6 l -3.9 0 z M 121.8 40 l 0 -27.6 l 9.1 0 c 8.5 0 12.8 5.7 12.8 13.8 c 0 8.1 -4.3 13.8 -12.8 13.8 l -9.1 0 z M 125.7 36.5 l 5.1 0 c 6 0 8.9 -4 8.9 -10.3 c 0 -6.3 -2.9 -10.3 -8.9 -10.3 l -5.1 0 l 0 20.6 z">
        </path>
    </g>
</svg>